<mxfile host="app.diagrams.net" modified="2024-05-14T08:35:34.284Z" agent="Mozilla/5.0 (X11; Linux x86_64; rv:125.0) Gecko/20100101 Firefox/125.0" etag="AMyvfb2P4AqPLcnFlJVA" version="24.4.0" type="github">
  <diagram name="Page-1" id="TKSMLP9pwk46Xk0tCU2D">
    <mxGraphModel dx="1434" dy="711" grid="1" gridSize="10" guides="1" tooltips="1" connect="1" arrows="1" fold="1" page="1" pageScale="1" pageWidth="850" pageHeight="1100" math="0" shadow="0">
      <root>
        <mxCell id="0" />
        <mxCell id="1" parent="0" />
        <mxCell id="_WpON1TOEkIr62-E9Z8a-1" value="" style="shape=image;verticalLabelPosition=bottom;labelBackgroundColor=default;verticalAlign=top;aspect=fixed;imageAspect=0;image=data:image/png,iVBORw0KGgoAAAANSUhEUgAAAcQAAAHbCAYAAABV3+pRAAAgAElEQVR4nOzdeVxN6R8H8E+LlKJNoVARJoVokTFJmMxGmTFoxmixTkURhsFkmZkYWzH2IksJg0wYZahEIREVwuhWSkna97rn98eP+3Ld20b3nnvr+3697mu6z/Occ7/nvkbfznOeRYZhGAaEEEJIOyfLdgCEEEKIJKCESAghhFBCJIQQQv6PEiIhhBBCCZEQQgj5P0qIhBBCCCVEQggh5P8oIRJCCCGUEAkhhJD/o4RICCGEUEIkhBBC/o8SIiGEEEIJkRBCCPk/SoiEEEIIJURCCCHk/yghEkIIIZQQCZFutbW1KCgo4CsLCQnBzZs3WYuJEGlFCZEQCVJdXY3c3Fykpqbi6tWrSE1N5dVdvnwZd+/e5b0vKiqCi4sLFi1axHeOjz76CCtWrMDz58/FGjsh0k6e7QAIaW8iIyOhp6eHAQMGAAC2b9+Oy5cvo7CwEOXl5ZCTk0PXrl2hqakJOzs7GBsbo6CgAOvXr8fx48cBAHl5efDw8IC+vj4ePHjAd/5hw4Zh1KhR8Pf3x/r161m5RkKkkQzDMAzbQRAiTerq6lBUVARFRUWoqKjw1UVGRuLChQvIzMyEnJwc+vbti7Vr10Je/v9/exYXF2P8+PEwNjZGYGAgACAtLQ1VVVVQV1dHSEgI8vPzsXnzZr7z7tixAzk5Ofjtt98AAKdPn0ZZWRnMzMwwe/ZsXLt2ja99WloanJyc8Pfff0NbW1sk38OdO3eQm5sLLpcrkvM3pmPHjjAxMUG3bt0gIyMj9s8nbRPdIRLylurqahQWFqKgoACFhYVQV1eHsbExAODp06fYtm0brl+/DoZhwOVyMX78ePz6668AAB8fH8TExGDWrFmYPn06qqqq8PLlS14yBIC4uDgMGzYMHA4HN2/ehKWlJe9OEQC6d++OR48eCcSVkJCAyZMn895PmjQJAJCbm4uamhqUl5dDWVmZVz9gwADo6uri6tWr+Prrr1v1O/rmm29w6tQpqKioQFFREWz8Ta2oqIiXL1+iZ8+eWL58OWbOnCn2GEjbQwmRtHvN6bJMT0+Hq6srRo4cidOnT6NHjx4oKSlBWVkZAODSpUuIjIzE4cOHYWho2OBnXbt2DcOGDYOFhQUCAgJgaWnJV6+hoYFXr17xlXG5XDx8+BC9evUSOJ+6ujoA4NWrV3wJEa+fJQpLru+ruLgYampqvPdlZWW862fLf//9B09PTyQnJ8PPz4/VWIj0o4RI2j07OzuMGjWq0S7LP//8E8bGxvj11195XXRdunRBly5dAADnzp3D2LFjG02GXC4X169fh6OjI/T09HDw4EEkJibCzMyM10ZTU1MgIdbX16O+vl6gexavuw47deqEV69eCSTMnj174uHDh+/5rfCrr6/nJV9JU15ejt27d6O0tJTXDU3I+6BRpqTdGzBgAIYMGYLevXuje/fuKCws5Kuvra3FtWvX8M033zT4vIrD4aBPnz6Nfk5ycjIAwMjICCoqKpgyZQr27dvH10ZdXR2VlZWoqqoSOL62tlboeTU0NASmXgAAwzCQlW2df+ITJ05kpWu0uaqrqxEeHk7TTcgHoYRIyFuEdVm+evUK9fX10NLSavA4WVnZJpNPXFwc5OXlsWzZMsyaNQv//PMPEhMTkZSUxGujqakJAHwJrkOHDtDW1kZ6enqDMb+bxPH6zknYXWVL1dbW4sKFCx98HlHLz8/HgQMH2A6DSDFKiIS8RViXZadOnYBG7tAAQE9PD//991+j57569SrMzc1hbm6OqVOnYvXq1bCzs+O7S9TQ0AAAgQTXv3//Brs/1dXVBWIGgNTUVJiYmDQaU3MkJCS0SmIVhxs3brAdApFilBAJeYuwLsvOnTujW7duvC5PYT755BPExMQI7boEgJcvX+LRo0fw9PTElClT8Omnn8LMzAxubm5ITEzknbtDhw5QVlYWSHB2dnaIiIhAfX29wLlHjhwJPT09vrKSkhKkpaXBwsICo0aNgouLC86cOYOioqIWfyfZ2dm8PwqE0dHRwZ49e/Ds2TNUV1fj2bNnCAkJgaqqKq+No6Mj4uPjUVZWhpKSEiQmJmLKlCl853FxcUF9fT169+4NvH4GyjBMgy9zc3OBWEpKSlp8fYS8QQmRkLcI67LE64R04sSJBkdVfvHFF+jevTu8vb15XZv19fV48OABUlNTce3aNRgaGgp0u+rq6uLzzz9HQEAAr2z8+PHo3LkzX7tPP/0UcnJyuHjxosBnT5o0CXZ2dnxlx44dw4gRI1BTU4PY2FgEBQXBwcEB6urqmDRpEvz9/cHhcJr1nXC5XKGJ+E38CQkJsLKygoeHBywtLTF37lykpaWhuLgYALB69WocOnQI0dHRGDNmDOzs7BAYGIgXL17wncvV1RU5OTlwdnYGXk8pMTIygpGREW807sSJE3llKSkpAvFUVlY265oIEYohhPDU1NQw5ubmTHJyMl95SUkJY29vzzg6OjKXLl1iHj16xMTFxTHbt29nnjx5wjAMw+Tm5jLz589nLCwsGBsbG2bEiBGMnZ0dExERwRw8eJAJCwsT+pnV1dVMTU1Nk7HdunWLGT9+PJOfn9+stoWFhUxsbCwDoMGXqakps3r1aubOnTsNnis0NJTR0tISenxwcDBz//59pmPHjkLrBwwYwNTX1zPTp09vNA5DQ0OmpqaGcXFxYZ4+fcrIyMjw1aupqTEMwzAmJiaNnkdHR6fJ74aQhlBCJOQdNjY2TExMjEB5UVERs379esbe3p759NNPGUdHR2b9+vUCCaqoqIh5+vQp8+LFi1aPLT4+npeAm0tVVbXRJPLmpa+vz3h5eQkk7oYSooKCAlNRUcE4Ozs3eM5Vq1YJTXDvvn7//Xfm7NmzjKKiIlNcXMzY2tpSQiRiR/MQCXmHsC5LAFBVVcVPP/3U5PGqqqp8z89ak5WVFd/7iooK3gT58vJyoT/369cPt27davLcHA4Hfn5+8PPzg5KSEj766CNYWVlBTk5O6ICiXr16QUlJiW8B8nf1798fDx48aHTKhpycHGbMmIElS5agqqoKp0+fhouLC6KiopqMmZDWRAmRtMiuXbsQFhaG6upqPHnyhJUYdHR0ICsri1GjRmHhwoXo0aNHq55/+fLlrXq+d+Xl5SEnJwelpaUNJrGmfn7zXyUlJaioqEBFRQXKyspCf87MzGxxjDo6OlBTU8OLFy+Qk5ODiooKgTZv1jCtrq5u8DxcLrfRerx+PquqqoozZ84AAI4ePYpTp07Bw8ODBskQsaKESJolPz8fAwcORHl5OesDF7Kzs4HXQ+x3796N9evXw83NjdWY3lZaWgoOhwMOh4P09HTef9/83KVLF1haWqK4uFhoElNVVYWOjo7Q5Pbm/Zuypha25nA42LZtW5Mx6+npYfTo0XBwcICDgwNf3bFjxzB//nzk5+fzlT9//hzV1dUwNjbGvXv3hJ43PT0djo6OjX62q6srVFRU+JKfnJwcpk2bhr179zYZOyGthRIiadLLly8xePBgvHz5ku1QBJSWlmLhwoWQk5PD3LlzxfKZXC6XL8G9nfg4HA6qq6uhr68PfX19GBgYwNDQEOPGjYOBgQH09fWhpKQkljgBICwsrMG6IUOGwNnZGaNHj4apqWmLz11VVYWLFy9i/vz5OH78uNCRqOHh4fDx8cEXX3yB8+fPC9RraGhg4sSJcHJywu3bt3nlixcvhouLCyVEIlaUEEmTzM3NkZuby3YYDaqpqYG3tzdGjBiBwYMHt8o5c3NzG0x4WVlZMDAw4CU4fX19TJo0ifdz165dWyWG1hAUFMT7WVVVFQ4ODrw7wbcX6n5fP/30E+Lj4xEREQE/Pz9kZmZCQ0MDPXv2xJEjR5CYmIiAgAAcP34ca9euRVRUFLhcLvr06YP79+9j7NixyMzMxOHDh/meM27atAnJyckwMjIS2O+REFGhhEgadfTo0feazC1u5eXlWLRoEf79999mtS8tLeXrzny3W1NNTY0v4Y0cORLff/899PX1BSbBS6o38ww9PT15ibC13b9/H1ZWVli9ejUCAwOhrq6OwsJCnDp1CkeOHAEAzJ07F6mpqXB1dcXq1avBMAyePHmCOXPmwMXFBXv27BEYdJOSkoIrV67A1dUVS5YsafW4CRGGNggmjZoxYwYOHz7MdhjNoqSkJHTwR319PW7evMl7JSQkgGEYqKmp8bo13/z3zc+KioqsXIMkaugZoiTS0dHhPWMmpKXoDpE0Stii0T179kRWVlaDx1hYWODWrVvQ0dGBj48PvvzyS2hpaSE/Px9XrlzBjz/+iOLiYigqKmLJkiX47rvvYGBggNLSUty9exfe3t64e/cu73wuLi4ICAiAgYFBoyMmtbS0kJmZiaqqKl7iu3nzJu7evQtLS0tYWlpi0qRJ+P3336XmLk8SyMvLQ0FBge0wmqVbt25sh0CkGCVE0qhnz54JlL1ZUguv1/m8efMmJk6ciMePHwOvu+p0dXVx8+ZNvHz5Eh4eHkhPT0fPnj1hbm6O4uJiyMnJ4dy5cxgyZAhWrFiB69evQ11dHaNHjxZ4Xvn2kl5r165tNNZhw4ahR48esLS0hIWFBZycnDBs2LBW/17aE319fd4ybJKuQ4cObIdApBnbKwMQyWZqatroyiANrSDS1JJes2fPZqqqqhhDQ8MPWtLr3ZVT7t27x/ZX1iY1Z6UbSXgtXbqU7a+KSDFa3Ju0OgUFBUyaNAl//PFHg5Oyp02bhtDQ0CYn97u6uiIyMhJHjx6FpqZmowNDZGVlha4wQz7cmwW3JVnnzp3h4eHBdhhEilFCJK2uuUt6NVaPt5b0Cg4O5lvSi4jfgQMHWmWahqh06NABa9asQa9evdgOhUgxeoZIWh0t6dU2vXjxAjo6OqioqBA6mpct8vLy2LJlS6veHZaVlSEsLAz37t2DvLw8PvnkE4wfPx5ycnKt9hlE8lBCJK2uuUt6GRsbN3oeWtJLsnTo0AH5+fnw8vJCSEgIioqKoKCg0OjC3aKirKyMoqIiDB8+HKNGjcLvv/+OQYMGwcbG5oPPnZSUhGXLloFhGIwbNw6KiorYv38/Tp06hc2bN4ts4XbCPpqHSBo1dOhQJCUlNVivpqaGwsJCDBo0iG/D1vDwcGhqasLa2lrokl7e3t5YtWoVjIyM8Pz5c4F6DQ0NPH/+HLNnzxZY0mvAgAEYMWKEwDGKiop48OAB9PX13/NqSUuUlpYiJyeHlYQoJyeHfv368d4XFBTA0dERxsbG2Lp163uf9/Hjx3BxcYG1tTVWrVqFTp06Aa/nsq5Zswa5ubnYtWsX3Sm2VWyP6iGS7X1HmQ4cOJApLi5m/v33X+arr75iBg8ezIwePZq3UayioiKTnJzMPHnyhJkxYwZjamrKWFlZMTNnzmRUVFSYBQsWMI8fPxYYVWpiYsIwDMMYGRkJxKKoqMikp6ez/I0RNu3YsYPp3bs3c+3atRYfW19fz0yZMoVxc3Nj6urqBOqrqqqYSZMmNbjRM5F+lBBJo943IQJgjIyMmGPHjjF5eXlMTU0Nk5eXx+zatYvv2K1btzIcDoeprq5mioqKmOjoaKZLly7MnTt3mMWLFwv9zJiYGGbjxo2UEIlQz58/Z0aPHs0sXry4RcddvXqVsbS0ZJ49e9Zgm/T0dKasrKwVoiSSiLpMSaOa6jKVJNRlSt62bds2bNu2DaGhoTA3N2+yfVBQEC5cuIDQ0FCxxEckD027IIS0SQsWLEBUVBQ8PT3xxx9/NNleU1MTZWVljT4TvXfvHhYuXIixY8di/PjxWLduHfLy8lo5csIWSoikUTo6OmyH0GwaGho0MZ/w6dWrF65duwY1NbUmR6COHTsWVVVV+Oeff4TWBwcHY+bMmWAYBitWrICPjw8AYPr06UhLSxNJ/ETM2O6zJZLNy8uL9eW4mvvS0NBg++siEiw+Pp5RUFBgrl+/3mCbhIQExsbGhjl37hxfeUREBGNubs6EhoYKHBMaGsp88cUXTHFxsUjiJuJDd4ikUZ9//jl0dXXZDqNZHBwc2A6BSDArKytUV1djyZIl2LZtm9A25ubm8Pf3x86dO7Fv3z7g9V6bf/zxB7777jtMnTpV4JipU6eid+/euHz5ssivgYgWDaohTfrss88QERHBdhhNov+VSXMtWbIE2dnZCAkJEVpfXV2Nuro6KCsr459//sFvv/2GiIgIKCsrC21fW1tLO220AXSH2MYUFhbi119/5a0k0houXLiA4cOHt8q5RKFLly5ITk5mOwwiRTZu3IhvvvkGffr0Ebq3Z8eOHXnJLy8vD/r6+g0mQ9C2U20GJcQ2RlFREcOGDcOVK1fg4OCAv/76q1XunK5fv45p06ZJ1ALPysrK0NfXx507d2BiYsJ2OETKfPPNN4iNjYWtrS3++uuvBtv16dMHOTk5Ta69+0ZlZSVCQ0MRHx/fitEScaAu0zYsMjISmzZtgqmpKX777bcP+iv28uXLWLt2LXR1dWFnZ4eMjAzk5OS0arzNpaamBm1tbZiZmbXK2pWEfP/99+jRowc2bdokUMflcvHDDz/A3NwcCxcubPAcRUVFOH78OI4fPw4AsLCwgK+vr0jjJq2LEmIbcPjwYRgbGwvdGT47Oxvz5s1D3759sWXLFsjKNr9TICkpCQcPHsThw4d5w9Gtra1bOXpCJMP27dtx/PhxxMTECPw7yc3Nxdy5c2FhYYGFCxfydZ/m5OQgODgYZ86cwbBhw+Ds7IxffvkFa9asgZmZGQtXQt4b28NcyYepq6tjrK2tmbFjxzJZWVlC2+Tk5DC2trZMcHBwk+e7c+cO4+Xlxejr6/OmM2hpaTGFhYUiiJ4QyXLjxg1GUVFR6FqohYWFzE8//cTs3buXYRiGefToEbNy5Upm+PDhjJOTE3P//n2GYRjm/PnzzLfffss77r///mMuXbokxqsg74ueIUq5x48fo0+fPrC1tYWXlxdKS0sF2vTo0QOLFy/Gzp07UVBQIFDP4XDg7++PoUOHYujQofDz8wOHwwEAqKio4ObNmxL17JAQUbG0tERlZSVWrFiBwMBAvjo1NTWsX78ednZ28PT0xIwZMyAnJ4e5c+eCw+GgqqoKAHDs2DF8++23vOOKioqwdu1anD17VuzXQ1qI7YxMWq60tJSpqalhGIZhTpw4waxdu5apra1l5syZ0+BK/QzDMNOnT2cCAwMZ5vUixX5+fk0u3h0VFSXWayNEUixbtoz55ZdfBMpramqYw4cPM7m5ubyyc+fOMTY2Nsz+/fuZUaNGCSwAfu/ePcbW1pY5ceKEWGIn74cSohTy8PBgnjx5wjAMw5SUlPD+YRYVFTEODg6Mr6+v0ONOnjzJfPvtt8zDhw+btfKLj4+PWK+LEEnj6+vLzJo1q1ltL126xAwfPpxZv369QF1NTQ0zd+5cxtzcnDl8+LAIIiWtgbpMpRCXy+Wtndi5c2d069YNAKCqqgo/Pz9EREQIrNi/fPly2NjYID09HX369GnyM+zt7bF69WoRXQEh0mHZsmWwtrbGl19+2WTbAQMGgMvlYvLkyXzl9fX1+Pnnn5GVlYUtW7bgyJEjvFVwiGShhCiFBg4ciKioKKF1enp62LBhA7Zt24a4uDheua+vL2pra2Fubt7kvEQ9PT0EBQW1etyESKMZM2Zg4cKFMDU1bbTdyZMnMXToUPTt25dXxuVy4ePjg3v37mHnzp2wtrbG3r17cf78eWRkZIghetIibN+ikpbLyMhghg8fznA4nAbbnDhxghk7dixTXl7OV15VVcV4e3s32E2qqqrK3LlzRwxXQYh0uX//PqOlpSV0g+Camhpm7NixzMWLF3llXC6XWbt2LTN27FjeI443amtrxRIzaRmahyjBMjIyEBkZie+++05g2Shvb2/U1dXB39+/weOzsrLQq1cvgfKioiIMHDgQz58/F6g7cOAAnJ2dW+kKCGlbiouLYWBggJs3b8LQ0JCvLiQkBFOmTIG8vDzwenm4c+fOYffu3fjoo4+Enu/BgweIjo6Gq6srOnbsKJZrIA2jLlMJdunSJRw5cgQODg44duwY6urqeHXLly9HamoqDhw40ODxwpJhaWkpRo8eLfCcAwA8PT0pGRLSCFVVVbx69Qr29vaIiYnhq/vuu+94yXD79u0IDw/Htm3bhCbDmzdvwt3dHQsWLMD+/fuRnZ0ttmsgjWD7FpU0LDMzk7G1tWViY2OZKVOmMA4ODsy///7Lq79+/Trz8ccfMwcOHGjW+SIjIxlNTU3eBOK3u0qHDBkisusgpC369NNPmZCQEIHy1NRUZuTIkUxCQgJfeV1dHRMZGcl8//33zLhx45j9+/czhw4dYubMmSPGqEljKCFKuO+//56JiIhg6urqmOPHjzNjx45lnJ2dec/54uPjGWtra2bRokV886LetW7dOubLL7/kK7O3t+c9N6SVaAhpOScnJ2bTpk0C5S9fvuT9XFVVxfz111+Mvb09Y2FhwRw6dIiprKxkuFwu8/XXX/M9dyTsoi5TCZKQkIBz587xldnZ2eH8+fOQk5PDqFGjoK2tjcrKSsybNw+LFy9Gjx49cOLECeD16v0rV65ESkoK3zkmTJgAhmEEVsp4s6FudHQ0rURDyHsICgpCQUEB1q5dy1euqakJAAgODsaECRMQEhKC6dOno1+/fkhNTYW8vDzi4+NRXl4OW1tblqIn76JBNRKgqqoK69atw40bN+Dk5IQffviBV5eTk4Ovv/4amzZtwq+//oqxY8di0aJFePbsGf78808kJCQgODgYurq6yMjIQEJCAsaMGQMNDQ08ePAAo0aNQnBwMOzs7AQ+l8PhICwsDF5eXmK+YkLaliVLlkBfXx/u7u585YmJiSgsLMSYMWMgKyuL0tJSzJ8/H+rq6qipqcGQIUMwZ84cXnsul4vk5GSkpqbiyy+/hKqqKgtX035RQmQZwzDw9PQEAKxbt07oPwBnZ2c8fPgQ3t7efGskAkBZWRlUVFQEjjlw4AD8/f1x5coVdOnSRYRXQAgBgJ07d+LJkyfYsmVLo+0qKirg6emJ5ORkhIeHQ0tLC3i9xdquXbtQWloKOzs7fPbZZxg4cKCYoicAIM92AO1dVFQUHj9+jFOnTkFJSUloGzs7O8jIyAgkQ7xefPtdP/74IxiGQVJSkkhiJoQIcnNzw9atW7Fs2TKsX7++wXadOnWCrq4uNDQ0oKWlherqaqxevRpxcXFwd3fHpEmTPmjvUvL+6Bkiy+Li4vDxxx83mAwBYNy4cbh//z7y8vIaPVdpaSmGDh0KCwsL7N69WwTREkIas3DhQqipqcHHx6fBNsXFxbh48SKmTJmCmpoauLu749GjR7x5jJQM2UMJkQWpqam8rWLq6+tRWVnZaHttbW0MGjQIERERDba5ePEiDAwMEBwcDFdX11aPmRDSPMuWLYOMjAx8fX2F1oeHh0NXVxdmZmbYsGEDXrx4gYCAAOjq6vK18/Pzg4ODA2bPno1ffvlF6NZtpHVRQhSjvLw8uLm5wd3dHVlZWQCAwYMHIy4uDiUlJQ0eV1xcjC+//BLdu3cXWv/rr7/C398fL1++pGcOhEiA1atXo6SkROjzRFtbW8ybNw83btzAP//8gw0bNkBdXV2g3dy5c7Fz505oa2sjLi4ORUVFYoq+/aKEKCa5ublwcXGBvr4+zp8/j379+gEAPv/8cygrK8PX11foott37tyBs7Mz7O3thY4UbWhKBSGEXb6+vnj27Bl27tzJV66rq4sxY8Zg//79mDx5MoyMjIQer6SkhAsXLuDatWv4888/+RYNJyLC9kTI9sLLy4v5/fffhdbdvn2bGTlyJLNq1Sq+xbivXr3KjB49mrlw4YLAMQ8ePGC6du3KREREiDRuQsiHcXNzY/bt28dX9vLlS8bKyop58eJFg8cFBwcz1tbWzN27d/nKq6qqmMjISJHF257RKFMxKCkpwdWrV3H8+HGh9UOHDoW/vz9WrFiBr776CqampigoKEBmZiaWL18ucGcYFBSErVu34r///qMpFYRIuB07dmDmzJlQVFTE9OnTAQAPHz7EkCFDeFMu3nXy5Ens3LkT/v7+GDx4MF/dvXv3sH//fnz66adiib89oYQoIvX19bhz5w7Mzc1RXFwMvB5u3RAzMzP89ddfiIyMBIfDgbm5OcaPH89b8eKNH3/8EVwuF3fv3hX5NRBCWkdgYCCmT5+Ojh074ttvv4WhoSEmTpwotO3Zs2exZcsWbNy4EWZmZgL1V65cQf/+/cUQdTvE9i1qW1RaWsq4u7szM2fOZOrq6piamhrG2tqaOX369Hufs6SkhDE1NWUCAwNbNVZCiPhMnjyZOXPmTIP1kZGRzIgRI5ioqCih9a9evWJGjhzJxMfHizDK9osG1bSy7OxsuLi4QFVVFTt27ICcnBw6dOiACRMmYO/evQ2OFNu5cyeioqKE1l25coWmVBDSBpw4cQKRkZG4fPmyQB2Xy8XRo0exevVqjB49Wujxf/75JwwNDWFlZSWGaNsfWrqtFd2+fRtLly5FVVUVTp48iW7duvHqysvLMX36dKioqMDf3x8aGhq8upCQEOzfvx9HjhwRmFoRGhqKmJgY7Nq1S6zXQggRHWNjY/z9998CI0fr6+shJycn9JgzZ85g48aNCAwMxIABA8QUaftCCbGVhIeHY/PmzVi6dCnOnDmD8vJyBAQEQFFRkdcmLy8P7u7uKCoqwsSJE6GhoYFr166Bw+HAz89P4H/ybdu2ITExEQcPHmThiggholJfX4/OnTujoqKiWe2PHz+OLVu24JdffsEXX3wh8vjaK0qIraCmpgYLFizA/PnzYWxsjOLiYjg5OaF///7YsGEDZGRkeG2rq6tx9OhRxMbGor6+HhYWFpgxYwY6d+7Md86ff/4ZtbW12LhxIwtXRAgRtQcPHsDR0bHRNYefP3+OHTt2ICoqCmvWrMG4cePEGmN7QwnxA1SA6LsAACAASURBVCUmJkJNTU2g64PD4cDFxQWTJ08W2BKmKTNnzsTAgQPh7e3dytESQiTJmTNnEBwczDclq7a2FlFRUYiNjcWlS5dgZmYGT09PGBoashpre0CDat5TQUEBFixYAG9vbzx9+lSgXl9fH+vXr8fhw4cFNv1tzIQJE2Bra0vJkJB2wN7eHubm5li1ahWvrEOHDnjx4gV69+6NgIAAbN++nZKhmNAd4nvIz8/H7NmzMXToUHh7ewvdgumNEydOYMuWLdi1axdMTU0bPa+FhQV+++03oUu0EULarlmzZsHGxoZvc3AifpQQ38OCBQugra2NlStX8pW/2Z7p7dGlALBx40ZERkbi0KFD6NGjh9Bz9u7dG2fPnhVYlYIQ0j5YW1tj8+bNsLS0ZDuUdotWqmmhjIwMXL9+HRcvXuQrT01Nhbe3NzQ1NREQEMC3v+GiRYvQrVs3vqkWb+Tl5aF3797IzMwUSKSEkPYjNjYW3bp1Q1paGtTU1NgOp12iZ4gtxOFwoKGhAVVVVV5ZYmIi3Nzc8N1336GiogIrV67k27lCTk4OM2bMQMeOHfnOde/ePVhYWKC6upqSISEEycnJGDRoUIP1jY1IJR+OEmILqauro6ioiG/FmY8++ghbt27FjBkz4Ofnh9u3b+PPP/9s9DwXL17EzJkzkZmZKYaoCSHSQFtbGyEhIUKnV4SFhWHSpEmsxNVeUEJsIRMTE2hqaiIoKIhXpqysjGHDhgEA9PT0MGHCBERFRaGurk7oOY4cOQJ/f38kJCSILW5CiHSwtraGo6Mj3NzceGVvpnFxOBy6SxQhSogtJCsri8WLFyMkJATnz58XqA8PD0d4eDh8fX0hLy/4iHbz5s2IioqiDX0JIQ2aOXMmevfujX379gEAHBwceL1Sb/8xTloXjTJ9T0FBQdixYwfs7e0xfvx41NXVITw8HDdv3sTmzZsxZMgQgWOWLl0KeXl5/P7776zETAiRLiNGjMDgwYOxd+9eXpm+vj7S09NZjautooT4AeLi4rBv3z6kpqaiU6dOGDNmDNzd3QX2MAQAJycnDBs2DJ6enqzESgiRHmFhYYiJicGpU6eEjjO4c+dOk/OaSctRQhSDzz77DM7Ozpg2bRrboRBCJJiXlxcOHjzY4DZxb3h6esLPz09scbUXlBBFbOjQodiyZQtsbW3ZDoUQIuE4HA4cHBxw9+7dRttRt6lo0KAaEamrq4OOjg6Cg4MpGRJCmkVfXx9JSUlNPlqh0aaiQQlRBLKzs6Gqqork5GQMHDiQ7XAIIVLGz88PBw4c4FsA5F002rT1UZdpK7t9+zYmT54sdAcMQghpiaSkJDg7OwvtQqVu09ZHd4it6MKFC3B3d6dkSAhpFaampoiOjoa9vb1AHXWbtj5KiK0kKCgIu3btQnx8PNuhEELaEDU1NYSFhWHr1q0CddRt2rqoy7QVJCYmYsuWLQgODmY7FEJIGxYdHQ0HBwcUFxcDr5NlYWEh22G1GXSH+IF2796NHTt2UDIkhIjc6NGjweFweCthFRUVISwsjO2w2gxKiB8gJCQEN27cwP79+9kOhRDSTqipqfFNzdi9ezfbIbUZ1GX6ns6ePYsDBw7g5MmTbIdCCGmngoKC8OOPP6KyspLtUNoESojvITo6Gr6+voiIiGA7FEJIO1FZWQlZWcFOvY0bNyIpKUlkj23e3di8LaOE2EK3b9+Gu7s7jSYlhIjc1atXsXbtWiQkJEBFRQW5ublC29XX10NGRkZowvxQampq6Nq1K77//nusXLmy1c8vSSghtsDjx48xadIkpKSksB0KIaSNmzt3Lo4fP97kQt/i0qlTJ6ioqODJkyfo3Lkz2+GIBCXEZsrNzcXw4cORkZHBdiiEkDbOw8MDAQEBqK6uZjsUAW15qgeNMm2GiooKGBkZUTIkhIjcxYsXsX//folMhng91cPGxobtMESC7hCbQUlJCeXl5SLpnyeEkLeZm5sjMTGR7TAa1aVLFyQmJsLQ0JDtUFoV/YZvQrdu3fD8+XNKhoQQsbh//z7bITSppKQEt27dYjuMVidVv+XFfTPbr18/JCQkQE1NDQDA5XLF+vmEkPYlNzcXurq6DdYrKipi1apVePDgAaqqqpCfn49///2Xt3LNGy4uLqivr0fv3r0BAD179gTDMA2+zM3NAQAyMjJIT09HQEBAk7FmZmZ+8PVKGolPiBwOB05OTtDX14eBgQHk5OTE8pKRkcHTp0/5PrN3797Q0dGBvb19kztaE0JIS8nIyOD58+dC6+Tk5HDu3Dl4enrCz88Pw4cPx7fffourV68KTMdwdXVFTk4OnJ2dgdeJ1sjICEZGRrC0tAQATJw4kVf2ZuT8mDFj0KFDB0yZMgXKysqNxlpSUtJKVy1BGAm2b98+RlFRkQEgca/OnTszixYtYvsrIoS0Ibm5uYyysrLQ3zmzZ89mqqqqGENDw0Z/NxkaGjI1NTWMi4sL8/TpU0ZGRoavXk1NjWEYhjExMRE49siRI8zGjRuZpKQkxsnJqdHPWbFiBdtfV6uT2DvEwMBAuLu7o6qqiu1QhCotLcWff/6Jn3/+me1QCCHtwLRp0xAaGoonT5402s7V1RWRkZE4evQoNDU1MXr06GadX1VVFV9//TWOHTuG48ePw9XVtZUilx4SmRCfPn0KDw8P1NTUsB1Ko2pqarBt2zbExcWxHQohpI3r378/UlNTG20jJyeHGTNmIDg4GFVVVTh9+jRcXFyadX5HR0dkZWXh1q1bCAkJgbW1Nfr27dtK0UsHiUyIPj4+Entn+K7y8nIsWbKE7TAIIW0cl8ttcm6inZ0dVFVVcebMGQDA0aNH8c0336BLly5Nnt/FxYW3HiqHw8GNGzeanUzbColMiJcuXWI7hBZJSkpiOwRCSBuXnp4OY2PjRtu4urpCRUUFJSUlqKurw7lz59CpUydMmzat0eMGDhwIS0tL+Pj4oK6uDnV1dRg+fDicnJza1ZQzibtShmGgoKDQaJtPPvkEp0+fxvPnz1FdXY2srCyEhoaiR48eCAgIaHBo8dmzZ3nnsLS0xN9//42CggJUVlbi8ePHWLduHa9eR0cHe/bswbNnz1BdXY1nz54hJCQEqqqqAvH07NmzwUV3CSGkNYSHh2Pq1Kno0aOH0HoNDQ1MnDgRTk5OMDU15b0OHjzY5J2eq6srbty4gSFDhvCO++STT9C9e3d8+umnIroiySPPdgDvkpGRaXSJtNmzZ2PHjh3Yu3cvvvvuO7x69QrdunWDmZkZ8vPzsXLlSmzatAkAsHz5cnTv3p23kWZZWRnwulshPDwc4eHhmDx5MoqLizFgwAB06tQJAKCrq4ubN2/i5cuX8PDwQHp6Onr27Alzc3MUFxcLxJSTkyOib4MQQv5vx44dcHZ2RmxsLNauXYt79+5BUVERxsbGOHbsGKZPn47MzEwcPnyYb872pk2bkJycDCMjIzx48EDgvPLy8pg+fToWL14ssHHBmTNn4Orq2n62umN7mKswDQ3z7d27N1NVVcXMnDmzWVMj/Pz8mL/++ouvTF5ensnIyGACAwMbPC44OJi5f/8+07Fjx2Z9joqKCvP8+XO2vzZCiJRrbNrFmykTW7duZTgcDlNdXc0UFRUx0dHRTJcuXZg7d+4wixcvFnpcTEwMs3HjRqHTLuzt7ZmXL18K/X1na2vLVFVVMRoaGu1i2oXE3SE2xtHRETk5OQgMDHzvc4wYMQK9e/fm6x59m4KCAiZNmgQ3NzeJXVyXENI+FRUVYeHChVi4cKFA3dChQxs87u3FuIuKiiAjI8N7f+bMGd4gnHdFRUVBUVHxg+OWFhL3DLExAwYMwO3bt/nKcnNzeQ+BFy1a1OQ5+vfvj/LycnA4HKH1vXr1gpKSUpPDmwkhhLQtUpUQZWVlBdYTHT16NExNTZGamtqs0VBcLrfR+Y1vzk93h4QQcdPW1kZ9fT3bYTRLY2uuSiupSohPnz7F4MGD+coePnyIlJQUVFZWNusc6enpUFdXh46OjtD6NyNXmxreTAghrU1GRgbdunVjO4wmderUqdEuWmklVQnx5MmT6N+/P+zt7d/7HHFxcXj16hW8vLyE1ldVVeHixYuYP38+5OTkPiBaQghpuR9++IE34l1S6ejoYPjw4WyH0eqkalBNamoqNm3ahNDQUGzYsAEXLlxAcXExevToAW1t7Wado6amBl5eXjh48CA6d+6Mo0ePori4GDo6Oqivr0dkZCR++uknxMfHIyIiAn5+fsjMzISGhgZ69uyJI0eOiPw6CSHt17p167Br1y5UVFSwHYpQKioq+OOPP/gG5rQVUnWHCABLly6Fm5sbPv/8c0RGRiIxMRFBQUFISUlBfHx8s85x+PBhfPXVVzAyMsLff/+NGzduYMeOHby9w+7fvw8rKysUFBQgMDAQt27dwrFjxzBy5EgRXx0hhAAZGRlQUVFhOwwBysrKOHjwICZNmsR2KCIhw4h7191mkLa/PFRUVPD48WN0796d7VAIIW2InZ0drly5AgUFBZSWlrISQ8eOHSErKwtDQ0Ns27at2btnSCOp6jIlhJD2JDIyEq9evUJiYiIyMjJatOnBgQMHYGZmJjAQsaW0tbVhamqK/v37f9B5pIFE3iFqa2sjPz+f7TCaTU1NDS9evECHDh3YDoUQQgAARkZGOHfuHPr06cN2KFJDIp8hStv8FiUlJUqGhBCJUVxcjIKCAkqGLSSRCXHq1KlQUlJiO4xm+/bbb9kOgRBCeFJSUjBu3Di2w5A6EtllCgD6+vqN7nohKTp37oySkhK2wyCEEJ41a9agQ4cO+Pnnn9kORapI5B0iXq9A09C+X5JCWVkZz549YzsMQgjhExERgfHjx7MdhtSR2ISoqKiInJwcjB8/HmpqapCXl5wBsUpKShg1ahSKi4vRpUsXtsMhhBCe/Px8ZGZmwszMjO1QpI7kZJkGXLhwAdnZ2UhMTER6enqz5+K82eD3iy++aLVYOnXqBD09PZibm0NPT6/VzksIIa2F7g7fn8QnRLweddqSkadFRUX4+OOPERQUBEtLS5HGRgghkiQiIgITJkxgOwypJLGDaj6Ei4sLzp07hxcvXrAdCiGEiJWWlhb+++8/epzzHiT2GeL7CgsLQ1BQ0AevzkAIIdImPj4exsbGlAzfU5tKiBwOBy4uLgCAQYMGsR0OIYSIFT0//DBtKiE6OzujqKgIAGBjY8N2OIQQIlYXLlzAZ599xnYYUqvNJMTVq1cjJiaG915NTY3VeAghRJxevHiB7OzsNrmTvbi0iYQYHR2NNWvWsB0GIYSwhrpLP5zUJ8SioiLec0NCCGmvqLv0w0l9QnR2dgaHw2E7DEIIYRXdIX44qU6Ifn5+OHPmjNA6fX19scdDCCGtqbnTxOPi4jBo0CB07txZ5DG1ZVI7MT8pKanRh8dSelmEEIIjR45g586dqK2thYaGBoyNjfH5559jzJgxkJOTE2i/ZcsWKCgowMPDg5V42wqpTIhFRUWwtbVFUlJSg22k8LIIIQQAUFhYiLq6OlRWViItLQ137tzB+fPnoaKigkWLFmHMmDF87fv27YuYmBj07NmTtZjbAqlMiM7Ozjh48GCjbaTwsgghpEEVFRUIDQ3Fvn378NVXX2H58uWQlZXFxYsX4e/vj7Nnz7IdotSTumeIYWFhTSZDQghpazp16gRXV1cEBQUhPj4eGzZsAACcOHECzs7ObIfXJkjVHWJRURHfajRvxMbGgsvl8t6rqqoKtCGEEEnn4+OD7t27w8nJCZ06dWqwXUZGBmbOnAk3Nzc8efIES5cuFWucbZVUJURhYmJisGbNGnC5XN5KNTY2NoiOjmY7NEIIaRFnZ2cUFBSgtrYW8+bNw8SJEyErK7wj7/r161i9ejVOnDhBo0tbidR1mb4rJCQEM2bMQHR0NDw9PdkOhxBC3lvv3r0xb948eHh4YM+ePfj+++9x8+ZNoW2trKzwzTffQElJSexxtlUScYdYW1uLpKQkZGRkoKCgAB06dED37t3x0UcfoU+fPo0ea2dnh/Pnz0Ne/v97Hb/Z/iksLExM0RNCSOsICAhAWVkZvLy8UFVVhUOHDuHQoUMwMzODl5cXDAwMeG1TU1Ohp6cHFRUVVmNuS1hPiP/99x/c3d0hIyMDHR0dqKuro6ysDHl5eXj27Bn09fUxZcoUfP311wLzb65evQofHx9cunSJr7yoqIgW9yaESAUul4u6ujooKCigvLwc8vLy6NixI68+Pz8fO3bsQEREBCZNmgRvb2/IycnBzc0NZmZmmDlzJqvxtyWsJ8SnT5+isrISxsbGAnW5ubm4ePEijhw5gq5du+KPP/6Arq4ur37NmjXo0KEDfv75ZzFHTQghrSMyMhK5ubmYMWNGo+3S0tJw+fJl/PjjjwAAJSUllJeXN/iMkbQc6wmxOcrLy7Fjxw5cvXoVe/fuRffu3YHXg2c2bNgAKysrtkMkhJD3kp2dDScnJwQGBkJPT69Zxxw8eBDXrl3D3r17RR5feyIVCfGN48ePo1u3brCxsUFFRQV0dXVRWFjIdliEEPJBtmzZgri4OOzevRtdu3Ztsr2trS1+++03fPzxx2KJr71g9V6by+UiKSkJ1dXVzWo/ZcoU2NjYAAAuXbqEsWPHijhCQggRjUePHmHOnDlgGAaenp7Q09PDzJkzcf/+/UaPS0tLQ0FBASVDEZBn88Nzc3Mxe/ZsyMnJoV+/fhg8eDBMTEwwaNCgJtfku3z5ssB6foQQIi38/PxgZmYGGRkZyMnJwdfXF/7+/nB1dcU333wDR0dHob8HQ0NDaQ9YEWE1Iero6MDIyAhffPEF5OXlkZycjH379iErKwtqamoYNGgQTExMYGtryzfcGK/vEOfNm8da7IQQ8r5iY2Px9OlTbNq0iVemoKCAJUuWwMbGBrt378bXX38NU1NTmJiYQE9PDwzDwNLSEkVFRViwYAGr8bdVrCZEvF6Z4dChQwgKCsLkyZMBAMXFxUhOTkZycjISExOhq6vLlxCfPXuG8vJyDBgwgMXICSGk5err6+Hv7w+8Tox2dnaQkZHh1VtaWsLS0hL379/HzZs38ejRIzx58gRaWloYO3YsZGVloa6uzuIVtF2sD6phGAaHDx+Go6MjOnTo0KxjDh06hNjYWOzbt0/k8RFCSGs6fvw4wsLCMGrUKBw5cgSGhoZYuHAhhgwZ0uSx8+bNw6pVq/imn5HWw9qgmtraWgCAjIwMZsyY0exkCHp+SAiRUmVlZdi7dy+8vLwwb948nDx5Enp6epg9ezaWLVuG7OzsBo/dv38/ZGRkKBmKEGt3iGfOnMHLly/fa5WFXr16ITExEdra2iKJjRBCROHx48cICwvDkiVL+MofPnyIrVu34t69e5g2bRpcXV0FFuw2MDDAtWvXoKOjI+ao2w/WEmJRURF+/PFH9OrVC8uWLYOGhkazjktJSYGTkxMSExNFHiMhhIhTdHQ0tm3bhsrKSoSFhfGWcAsMDERiYiJ27tzJdohtGqvPEAsLC7F27VokJCTA3t4e48aNw+DBg/nWLK2oqEBcXBz09PTQr18/bNu2DVlZWdi4cSNbYRNCSItVV1fzrVHakLq6OqSkpMDU1JRXRneH4sH6oBoAiI+Px19//YXr16+jrq4OWlpaUFFRQVFREQoLCzFo0CD4+vpCS0sL9vb2cHNzw/jx49kOmxBCmuXu3buYNWsWtLS00KtXL6EvRUVFocfS3aH4sJIQKysrsWDBAvj6+vItU1RZWYknT57g+fPnqKurg4aGBgwMDNCtWzdeGxUVFRQWFrZoEA4hhLCpuLgYTk5OGDlyJIYMGQIOh4P09HTcvXsX+fn5AICuXbuiV69ecHNz47s71NfXR3x8PHr06MHiFbQPrMxDDA8PR1VVFTQ1NfnKlZSUMGjQIAwaNEjocbGxsbCysqJkSAiRKqqqqtiyZQtcXV0xdOhQzJkzB1wuF99//z2mT5+OkSNHIjMzE9nZ2Rg4cCDvuICAAHz55ZeUDMWElYQYGxuLSZMm8U1Gfdf8+fOxbNkyviHGtH4pIUSa1NbW4vr167C2tkafPn2wbt06rFixArq6ukhLS0NtbS2mTp0KOTk5oTtd/Prrr4iPj2cl9vaIlYT47NkzgaXY3pWeno6ysjK+ssuXL9NgGkKI1Dh69CiioqJgbW0NALC2tsbMmTOxaNEiMAyDFStWCGx8/sa+ffvw1Vdf0d2hGLEyMV9ZWRlZWVkN1ldUVODly5e8fQ/xekJramoqhg8fLqYoCSHk/RUXF+PAgQPw8vLiK3dycoKFhQVqa2thYWHR4PG//vorVq5cKYZIyRusJMTRo0cjICAAOTk5QuvPnj0LQ0NDqKqq8spodRpCiDTZs2cPdHV1YWJiIlC3cuVK9OrVCz4+PhA2rnHfvn2YMGEC300BET1WEuIPP/wATU1N3i7RGRkZqKurQ2FhIY4dO4Zt27bB2dmZ7xhKiIQQacHhcBAeHo7s7Gw4Ojri2rVrfPUKCgrYtGkTkpOTsWfPHoHjT506hbVr14oxYgI25yFWV1fj0KFDOHPmDPLy8njlHTt2hLu7OxwdHfnam5iY4PTp0+jXrx8L0RJCSPMtXLgQBgYGcHJywt69e3Hy5EmYmZlh4cKFMDQ05LV78OABrl27hlmzZvHKli5dCl1dXXh6erIUffsl9oT4119/wdzcHPr6+gAALpeLx48fIy8vD0pKSjA2NkanTp34jsnKyoKtrS2ePHkizlAJIaTF7t69C29vb4SFhUFFRQUAkJGRgW3btuHq1auYMGECfvzxR4FpZ6ClKVkn1oSYn58Pe3t7BAYGwsjIqNnHHTx4ENeuXcPevXtFGh8hhHwoLpeLrKwsodMobt26BT8/P2RmZsLJyUlgpx8rKyvs2rULQ4cOFXPUBOJ+hnjlyhWYmpo2mgzDw8ORnJzMV0bzDwkh0kJWVlZoMgQAc3NzHDp0CEuWLMG9e/f4plzs2LEDH3/8MSVDFon1DnH9+vXQ1NTE7NmzG2yzbt06GBgYYPr06byynj174s6dO9DS0hJTpIQQ0jJcLhc3btxAz549oaOj0+D8QmFKSkrQt29f3jJuhB1in5hfUlLSaH1ubi7Mzc1575OTk9G9e3dKhoQQiXb9+nV4enpCVVUVZWVl6NGjh9BFvHV0dCAvz/+rd9asWQgICGAtdvJ/Yk2Iw4YNw8aNG/HDDz8I3dy3uLgYSUlJWL58Oa+MuksJIdJg+PDhsLKygqqqKry8vJCRkYH09HT8/fffiIiIgLy8PAoKCiArK4s///yTNyk/PDwcXC4X9vb2bF9CuyfWLtP6+nrMnTsXOTk58Pb2xqhRo3gPlIuKirBixQrgdV/6GxMnToS7uztt90QIkXhlZWVwdnaGjY0N5s+fj/Lycjg4OGDNmjX4+OOPUVFRgezsbL7pY926dUNaWhrU1NRYjZ2IMSG+2RyzvLwcW7ZswT///AMFBQXo6+vzpl706tUL27dv59vuSVlZGcXFxQJdDIQQIokyMjLg4uKCRYsWIT09HY8ePcL27duFtl28eDH09PQwf/58scdJBIktIU6bNg1Lly7FsGHDgNfdo9HR0cjMzAQADBgwADY2Nnw7St+4cQNbt25FaGioOEIkhJAWe/z4MXr37i3wu8vb2xsyMjIICgpC3759BY67e/cuZs+ejZs3b4o5YtIQsdx2lZeXIz09na+bQFVVtck+85SUFGhoaIghQkIIabm0tDTMnTsXa9euxahRo3jlw4cPh7u7O/bs2QNFRUWhx86aNQuBgYFijJY0RSzzEFNTU9GrVy907ty5xccJWxiXEELYVl9fjxUrVsDJyYkvGb7h6OiIcePGYeHChSgvL+er2759O2xsbDB48GAxRkyaIpaEmJycjJycHMydOxfbt29HTEwMCgoKmjwuNTWVb/doQgiRFFFRUZCXlxfYiOBty5Ytg6qqKnx9fXllWVlZOHToEDZt2iSmSElziaXLNDk5Gfb29ujSpQtSUlJw8uRJlJeXo0ePHhg0aBBMTEwwaNAgGBkZ8U1mTUlJoTtEQohEun37NiwtLSEjI9Ngm+rqamzYsAEpKSm8stGjRyMmJkZMUZKWEEtCTElJgbu7O+8ZIpfLRXp6OpKTk5GcnIywsDBs3boVkZGRvKHHeXl5kJOTQ9euXcURIiGEtFhRUVGj9QcPHoSSkhJcXFyA11vf+fr6omfPnmKKkLSEyLtMs7KyUFNTwzfKSlZWFn379oWDgwNWrVqFY8eOITo6mm8eDt0dEkIkmYWFBS5fvoxnz54Jra+vr8f58+dhbGwMANi5cye6du2KKVOmiDlS0lwiT4i6uro4evQoZGUb/6h3t3y6f/8+PT8khEgsGxsbmJiYwM3NDQ8ePBCo379/P9TV1WFpaYm7d+8iKCgIW7duZSVW0jwi7zItLCxEVlYWdHV1W3Rcamoqhg8fLrK4CCHkQ8jKymLz5s34+eef4eTkBBsbG1hbW0NJSQmxsbGIjo7GgQMHAAC2trbIyspiO2TSBJEnxL179yIvLw9WVlYAAIZh4OHhAUNDQ5iYmGDw4MF8K9O8kZKSgpkzZ4o6PEIIeW/Kysrw9/fH1atXcezYMWzcuBH19fUYNmwYDhw4gL59+2LChAkIDQ2FsrIy2+GSJog0IdbW1iIiIgK7du3ilWVkZODevXuQlZVFeHg4SktLMWzYMOzZs4fv2NTUVF7fOyGESLJPPvkEhoaG6N69O/D6+aGcnBx8fX1hZmYGOzs7tkMkzSDShPjkyROoqKjwbQicnJwMExMTbN++HQzD4N9//8W+ffv4jnv69Cm6d+8u8FyREEIklZWVFTIyMgAAPj4+sLW1RVRUFCIjI9kOjTSTSBNiQUEBNDU1+cq0tbXh4OAAAJCRkYGcnJzA8mw0oIYQIk2CgoJ4yRAA1qxZg40bNwqsUEMkF3Dw3AAAIABJREFUm0hHmXbt2pU37eKN4cOH823llJycDAMDA77jaMoFIUSarF69WqBMTU0Na9asaXKuIpEcIk2I/fv3R5cuXRrcCbq0tBT//PMPrK2t+crp+SEhRFq8e3f4Rk5ODlavXg0DAwMsXLgQHA6HlfhI84l8+6dbt25h/vz5GDlyJKZOnQpjY2N07NgRDx8+xMaNG9GhQwfs2bOHb57i0KFDERwcTN2mhBCJp6+vLzQhvktPTw/R0dHQ19cXS1yk5cSyH+KDBw/g7++PxMREvnJra2v4+PhAVVWVr7xjx46orq4WdViEEPJBoqOjYWtr22Q7Hx8feHl58a3GRSSP2DYIBoBXr16Bw+GgpqYGenp66NGjh0CblJQUODk5CSRPQgiRNE0t1G1jY4OgoCC6K5QSIhtleubMGairq/P2Cauvr4eqqiqGDRvW6HH0/JAQIg2io6MbTIZ6enrw8/Pjjagn0kEkg2pqamrg7++Pt28+7969CxsbG749EYuLiwWOpRGmhBBpIGxkqaqqKnx8fMDhcCgZSiGRJMSEhAR06dIFNjY2vLKUlBQYGRlh8ODBSE1NxcqVK7F3716BY+kOkRAi6YTdHdrb2yMpKUlooiTSQSRdpmlpaQILcycnJ2PMmDFwdHQEAOzbt0/o/BxKiIQQSfd20tPT00NQUBBGjx7Nakzkw4kkIZaXl0NRUZGvbPr06bx1/gAgNzcXenp6Asfl5+fTA2hCiMR6c3fYuXNnLFq0iO4I2xCRJMSePXvi5MmTfGVDhgzhe5+QkIBPP/2Ur4zuDgkhkm7atGkYNWoUDh48SH+8tzEiSYjjxo2Dv78/9u7di9mzZ0NGRoav/u+//0ZlZSXMzc35ymlADSGkpVJTU8X2WR4eHnBycsKGDRvE9plEfESSEDt37ozff/8dS5cuRWxsLD7//HP07dsX9fX1uHbtGk6ePIm1a9dCXp7/4+kOkRDSHGFhYVi1ahVSU1OhpaUllkW0q6urIScnh7S0NOzYsQNfffUV9u/fT7vytCEinZifnZ2NQ4cO4erVq3jx4gVkZWXx0UcfYc6cORg5cqRA+88++ww//fRTs1Z+IIS0T/PmzcPhw4dRUVHBdiiQl5dHQkICTE1N2Q6FtAKxrVRTU1MDOTk5yMnJNdimV69eSExMhLa2tjhCIoRImR9++AEnTpyQqKUdlZWVcePGDerdagNEutvF2xQUFBpNhi9evABe75dICCHvioyMxNmzZyUqGeL16Pgvv/wSYlwFk4iI2BJiU+j5IREFhmFQX18vtld7/6X49OlTvoRVUVGBuLi4VvleNm/eLLF7CxYUFCA6OprtMMgHooRI2iQPDw/07dsXBgYGUFBQENurb9++6NWrF+bMmYOSkhK2vwah6urqUFpaihcvXiAjIwNpaWlISkrC9evX8erVK167nTt3Cl1NCgBiYmKwdOlS3vv6+nqsX78eU6dOxePHj3nlSkpKCAwMRHBw8AfHnZCQ8MHnEJWysjLakKANENni3i314sULWFpash0GkXKpqakYNGgQa3dq6enpwOuVmIKCgnDq1Cl89dVXH3zeBw8e4N69e5g6dSoA4NmzZzh9+jSqqqpQVVWFyspK3quqqgq7d++GoqIiEhIS4OHhgX379mHw4MGor6/HiBEjgNePMWpqaqCuro4uXbpAUVER3t7e0NDQQHl5OY4fPw4ZGRl8++23UFdX58VSU1ODLVu2YNWqVcDrZLBs2TKoqKhAU1MTlZWVvLYyMjL4+eef8cMPP2DMmDHQ0dF5r+vncrkCo9LfJSMjg6dPn+LSpUuYNWsWACAg4H/t3XlcTfn/B/BX3dK+IJpCRZRd1rIWMgwiNZiYoexjzNi3GUYMw8z0tQ9jrWyFEPJFaBlrETF8lSHZi6i0UKrz+0P3/LpaVKp7q9fz8biPr3vO55z7vne+Dy+fcz6fz9mKsWPHFtj+2LFj4n8bb29vdOnSBU2aNAFyFxLZuXNngcelpaVBW1s733bpbR+qvBSmh/jPP/9AR0dH3mVQJXb9+nV069ZNYS5bvnv3DiNHjoS/v/8nn2vbtm1YuXIloqOjgTyXgvX09KCtrY1Tp06hW7du+PLLLzF+/HioqqoCAE6ePIl69erBx8cHACCRSBASEoJLly7h/Pnz0NfXx7x58+Dn54ddu3ahbdu2QG4PsEmTJrC2ts63yMa5c+cAQJxHnJ2djTZt2uDXX3+Furq6TCACgLm5OVq0aIGAgIBSf39lZWW8ePGiyDa9evWCqqoqhg0bBi0tLQDAggUL0KxZMzRr1gw7duxAYGCg+H7SpElA7jQxJycnaGpqik/nOXLkiNhuypQpSEpKEt8X9sQeRb0iQMWnMIGYkJAAAwMDeZdBlVjXrl0V7h7T69ev4eTkhOzs7FKfIy0tDZcuXcKQIUOwZ88eIHdE9rRp0zBhwgR8+eWXQO6z+ezt7dG1a1dIJBJkZWUhODgYs2bNwtmzZxEfHw/kjoqUDnDT0NDA27dv833mqVOn0L17dzg5OcHPzw/v3r0T9124cEHmao6enh7Gjx8PZWVlqKmpFXi+fv364dSpU6X+DYrDzc0NPj4+iImJEX+TuLg4REVFISoqComJiUhJSRHfP378GAAwfPhwREVFYf/+/XBzcwNy/7tJ2z158gTZ2dni+zt37pTr9yD5UZhAfPHiBerUqSPvMqiS8vLyQlZWlrzLKJAgCFi6dGmpjw8JCYG5uTlGjRqFM2fO4OXLlzL7NTQ0ACBfEIWHh0NLSwtdunRBjx49sG/fvnzn1tDQyNejS0lJwaVLl9C7d2906tQJOjo6MmEWExMDc3PzAmst6HwA0LhxYzx69OiT/mFQFD09PTg5OWHv3r3Yt28fxowZU+xjx4wZIx43dOjQAi+HUvXAQKQq4cSJEwo3HD+v06dPl/rYwMBA9O7dG8bGxujYsSP8/Pxk9ksD8cMgCgwMRK9evQAAQ4cOFe85fnjsh8cFBwfD3NwcBgYGSE5Ohr29vdgzRe7IUeklyQ8VdMkUAOrVq4fs7Gyxl1rWXFxc8OjRI1y5cgV79uxB9+7dCw3tvCwtLWFtbQ0fHx9cuHABL168wLBhw8qlRlJ8ChGIb968QXZ2Nv9lRqVW0MOm69evD0EQCn1J74E1atQIOTk5+Prrr8Vj7969W+hxs2bNEtt5e3vLjKosTGnva75+/RphYWHo3bs3AGDYsGE4cOAAMjMzxTbSJ8vkXbklMzMTISEhqFWrFv7++2/x/tuH9/EKCrDAwEBER0ejW7dusLe3h6enJ6Kjo3Ht2jUgd/BK3s/Pq7AeovSSq/TeZllzc3MTR7LGxsYiLCxMvPxZlDFjxiA0NBRPnjwBAPj6+paod0lVi0KMMmXvkD5VXFxcgduaNWsG5A6cCA8Px6BBg8QAi42NBXL/Mn3y5AnGjBmDXbt2AQA+//xz1KhRAwBw6NAh+Pn5iX/hSkcTSgdjvH79Gj169MDff/9daH3S0aclFRwcDABYuHChOJo0MTERJ06cwKBBg4DcgTKqqqoyvb+LFy8iKysLAQEBUFdXh4aGBurXrw9fX184OzuLC+5ramrKHJeUlIQrV65g+/btMDMzg4aGBlRUVLB06VL4+Pigbdu2qFevHh49elRgvR+eT0o64KQ8Bs41b94cnTp1QocOHfDzzz8DuYNw6tevj59//hk5OTkFHieRSPDNN9/gs88+Ey+3KykpQVlZGRYWFrxXWA0xEKnKysrKQlRUFABAX18fyA0m6Tbk/sU5evRoLFy4EJs3b4aZmRliY2MRExMjtsnIyEB8fLzMccgzGOP8+fNwc3MrMhBLKzAwEP369UOPHj2grq4OdXV1nD17Fr6+vmIgooCeWWBgIIYMGYKZM2eK26Qrqly8eBFdunQp8LigoCA0atQIrVq1kqnDxcUFI0aMwNOnT2FpaVnonMDCLpn+888/aNy4cb7npJaFMWPGICwsTJxqAQC6uroIDQ1Fnz59cPLkyQKP++KLL6Cnp4eOHTvKXG7fu3cv3NzcMH/+/DKvlRSbQlwyTUhIYCCSXNjb20NbWxt79uxBSEhIsS6zSZX3YIzExERERETAzc0NvXr1QuvWrZGVlQVXV1c8fPgQV65cEdvmDbaMjAycPXsW9vb2MufT0tKCg4ODzP3ADwMsMDAw33HInTrRtWtXnDx5El988QUiIyPx7NmzfO1sbGzQunXrfNvzhnBJvX37FtevXy9wn4qKCr7++musX78eN2/eFF8XLlzA4cOHi7z8OWbMGPj4+CAiIkLm2I0bN2LUqFFFLjVJVZNCBOLz588ZiCQXY8aMwf79+5GZmYk9e/Zg9OjR+Z7fWZCKGIxx5swZNGrUCLq6umjbti10dHQwZ84c6OnpoX///uLcQnwQbNL5hQUF01dffQVdXV3xcUnW1tbi3EMA+O677wr9HitXroSbmxvq168PW1vbAlef6dOnT75AffDgAcLCwuDs7Fzk942Li0NoaCg2b96MmTNnwsHBARYWFjA0NMT48eMLPGbAgAFQUVHB/v378+37888/MXjwYNSqVSvfPgMDAwwcOBB//fVXvn07duyArq4u+vXrV2S9VPVU2NMuirJq1SrEx8djxYoV8i6FKqm2bdsiMjKy0P36+vpITExEq1atcPPmTQBAzZo18ezZM3z++ef4+++/oauri/j4eDg4OMiMCo2MjMTWrVuxfv16cdtvv/2Gjh07iqM4ly9fju7du6Nbt24Ffr6xsbE4cKMwSUlJCA0NRUhICAYPHoycnBxoa2vj+PHjcHd3BwB4enrC1dUVqampSExMRIMGDcRjNTU1xfue5S0xMREjR47E77///tGHep84cQKCIKBz587iPx4SEhLw4sULqKqqIiQkBNHR0dDQ0IClpaX4srCwgKWlJUxNTYHc+3uKbOLEiQUGLFUeCnEP8fnz53zKBVW4ESNGQE1NDUFBQeI2iUSCMWPGFDlNoiwHY4SEhIghmHdxaH9/f7i6uiIpKQleXl5A7lw7R0dHAIC2trbMJVrpPdKKkJCQgJycHBw5cgQSiQSBgYGIiIgQgy7vq2nTpujZsyc0NTWxbt06qKmpoU6dOjAwMIChoSHq1asHBwcHWFpaQk9Pr9DPFASh0BGsikJNTU3eJdAnUohATEhIEEcDElUUNzc3rF+/Hps2bRK32drawsPDA/r6+oWuelOawRgJCQlwcnJCZmYmkpKSEBcXh3v37hVaW2xsrNgrlOrfvz+ys7ORkJBQ5HSSD1/IDZSitmVkZOD58+dikH0YbnnfGxgYwMDAQAy2OnXqoHbt2jA3N4e1tbW4X7pP2mv97rvvSvzfSEpJSQmqqqoKHYiGhobyLoE+kUIEInuIVNFatWqFtm3bwtnZGQ8ePBC3R0dH46effoKLiws2btxY4LF5B2PktXHjRsyfPx8LFizItyKLnp4eHBwccObMGVy7dg1Pnz4tcc0nT55Eq1atoKSkVKIXcgOlqO1GRkZQUVGRCbI2bdrkCz95Lq/YrFkzhIWFye3zi6Kuro727dvLuwz6VIIC6NKli3D58mV5l0GVmJWVlQCg0Je+vr4gCILQsmVLAYCwatUqISAgoMC2ixcvFi5fviy+j4yMFKZMmSIAEAwMDITMzEyhQ4cO+Y7T1dUVUlJShAEDBuTbZ2xsLFPv/fv3hUWLFgmmpqZF1p335enpKadfVzH4+PgIurq6xf69KvJlbGwsvHv3Tt4/EX0ihRhUY2FhgVOnTok3z4lK6mODauStqEE1kZGR8PLygr+/v0xv9UOjR48W7ydWV3Z2dggNDZV3GTI0NTXh4+MjMy+UKieFmHbBiflUnVlZWWH16tWIjY3FtWvXMHr06AIHmBw+fFgu9SmSkJAQ9OzZU2EGsKipqeHw4cMMwypC7vcQ09LSoKSkBE1NTXmXQpWYot+DLu6Dca2srMReoL+/v/hKTk5GUlISIiMjYWVlVc7VKragoCAsX74cq1evRnJyMgwMDApcLq68qKioICEhAR06dMD27dvRvHnzCvtsKl9yD0T2DqksdOnSBYGBgfIuo1AWFhYlPsbR0VGcZuHv7y9eVq3ugQgA8+fPx9y5c/H48WPcvn1b5nmN5U1fXx/t27cXnzJCVQcDkaqE/v37Y9u2bYUuOi1PderUwciRIz/pHHnDkd5TVlaGiYkJTExM5F0KVRElHlQjCAKOHz+Oy5cvIzo6Ot/DSksqISEBjx8//qR/9bZo0QJWVlbo2rVrsZ6BRlXTuHHjsGvXLoV7LmLfvn1x4sQJeZdBRB9RokAMDw+Hg4MDUlJSFG6CbI0aNWBsbIzhw4dzCbhq7JtvvsG+ffsKfV5fRVJTU0OHDh1w7tw5eZdCRMVQ7EC8dOkSevXqpXBB+CE1NTWMGzdOZt1Jql5+//13rF27FomJiTIPza0oWlpa0NHRgYuLC1auXFnhn09EpVOsQHz16hWMjIwU4l/dxaGmpoY5c+ZgyZIl8i6F5CQ9PR3Xr1/HrVu3Cl2CrTzo6uqiadOmsLKygq6uboV9LhF9umIF4rBhwwp8vIoia9CgAcLDw/HZZ5/JuxQiIqoEijUx/9ixY+VfSRlLSEjA1atX5V0GERFVEh8NxPv370NHR6fINqNGjcLZs2fx8uVLpKen486dO1i1alW+55cV1W7r1q2FrtYfEBAgnsPFxQUXL15EamoqXr9+jYiIiAIfaPrmzRtER0eX7NcgIqJq66PzENPT05GSklLo/h07dsDBwQErVqzA7NmzkZmZCVNTU9SqVQt5r8Z+rN2CBQvg4eEB5E66/eyzzzB16lQAQGpqKgDA3d0dP/30Ezw8PDB16lQoKyujXbt2eP78eYG1xcfHl/wXISKiaumTJuYPHz4cQ4cORceOHcWnkAPId6myOO3i4uIQFxcH5D6NW0tLC1FRUeJ+S0tLLFy4EKNHj8auXbvE7ZcuXfqUr0BERAR86uLerq6u8PX1lQm5T2lXlGHDhuHBgwfYvXt3qc9BRERUmE8KREtLS5mHpLZo0QJZWVniS/rAzOK2K4qFhQVu374NBXhaFRERVUGfFIjKysrIyckR39+9exdWVlbo1KkTJBKJOKimuO2KkpOTo3BLchERUdXxSfcQY2Ji0Lp1a/F9RkYGbt68CXV19VK1K8r9+/fh4uLyKeUSEREV6pN6iH5+fnBxcUGDBg3KpF1Rjh49CgsLC/Tv37/U5yAiIirMJ/UQN2/ejJEjR+L8+fNYtmwZLl++jMzMTFhaWpaqXVEiIiKwdetW7Nu3D0uWLEFwcDBycnLQqFEj/O9//8OtW7c+5asQEVE190mBmJWVBXt7e/z444+YMWMGTExM8O7dO8TFxWHnzp14/Phxidp9zMSJE3Hr1i2MGTMG7u7uEAQBd+/exYQJEz7laxAREX18LdNbt26hU6dOcnlqwKeaO3cuHwVFRETF8kn3EImIiKqKjwaiiooKatasWTHVlLE6derIuwQiIqokPhqIlpaWha4VqshUVVXRsGFDeZdBRESVRLEumdrY2JR/JWXM0NAQbdq0kXcZRERUSRQrENesWQNtbe3yr6YMff755zA3N5d3GUREVEkUKxDbtm2L//znP9DU1Cz/ispAhw4dsG3bNnmXQURElUixR5lOmDABK1as+OjDguVJV1cXvXr1wuXLl+VdChERVTIfnYf4oRcvXmDdunUIDg5GZmZmmQ+4efXqFVRVVUsUvA0aNICFhQUGDx4MBweHMq2HiIiqhxIHYnk7d+4cpk6dKvO4KCIiovKmcIEIANra2ggJCUGHDh3kXQoREVUTChmISkpKaNq0KW7fvi3vUoiIqJpQyKXbbG1tERUVBS8vL3mXQkRE1YRCBqKUm5sbIiMj5V0GERFVAwoZiGZmZuKfe/bsidjYWLnWQ0REVZ/CB2JSUhKGDBmCpKQkudZERERVm0IG4ociIyMxffp0eZdBRERVmEIGopWVVb5tXl5eWL16tVzqISKiqk8hA1FfX7/A7dOnT0dISEiF10NERFVfpQpEABgyZAhHnhIRUZlTyIn5yJ2cXxgrKysEBwcXGZxEREQloZA9xI+JjIyEm5ubvMsgIqIqRGED8WNPu/f394e7u3uF1UNERFWbirwLKExhl0P19PTEUaghISGIjIwU38fFxcHf3x937tyBmpoabGxs0L9/f6iqqlZo7UREVPlUikDU09PDlClTcOHCBQQFBeVrm5OTg+3bt2Pr1q0wNjaGtbU1lJSUsGXLFvj7+2P16tXQ09Or4G9ARESVicJeMpX2+vT09BASEoKlS5fi5cuXiIqKytfWw8MD3t7emDdvHvz8/DB37lzMmTMHBw4cQK1atXhplYiIPkphAxG59xHzXhKdNm0aDh48KNPmn3/+wf79++Hh4QFHR0coK///V1JTU8OSJUtw+/ZthIWFVXj9RERUeSjstIvIyEiYmZnlu5dYr149XL9+HQYGBgCAdevWISoqCn/++Weh59q4cSMePHiAFStWlHvdRERUOSlsD9HKyqrAgTWLFi3C4sWLxfeZmZkwMjIS36enp2PSpElITk4Wt1lbWyMlJaUCqiYiospKYQOxMBMmTEBAQACePn0KAGjRogX++ecfcb+mpiZ0dHSwefNmcVu7du2K7EESERFVukAEgJ9//hlLliwBAPTu3RspKSniGqeCIKBFixY4cOAA7t+/L+dKiYioslDYe4gfY2FhgVOnTsHU1BRBQUH4448/MHfuXHh5eSEmJgZubm4YOXIkatSoIe9SiYioEqi0gbhr1y4EBwdj27ZtAID169fD29sbAwcOxJQpU1C7dm0IgoDAwED4+fnJTNafOHEi6tWrJ++vQERECqTSBiJy7x8eOXIE5ubmAIBHjx6hQYMGAIDk5GT8+OOPuHr1Kvr374/OnTtDSUkJgYGBiIiIwIYNG2BhYSHnb0BERIqiUgfivn37cPToUezcuVNme05ODiZMmIBXr17Bw8MDjRo1ktm/bds2HD9+HHv27OElVSIiAirroBqpYcOG4caNG/lWrwkODkZUVBTWr1+fLwwBYMyYMVBRUcGJEycqsFoiIlJklToQAcDd3T3f0mzXrl1D9+7dYWxsLG5LS0sT/6ykpARHR0cGIhERiSp9IA4ZMgT37t3DjRs3xG1qamoyl0LT09Ph6OgoMw3DxsYGzZs3r/B6iYhIMVX6QEQBq9fY2Njg0qVLyMzMBHIn6w8aNAirVq0S25iZmWHKlCnyKJeIiBRQlQjEgQMH4tmzZ4iIiAAAdOzYEUZGRvDx8QEAvHz5Ei9evMDFixcRHR0t52qJiEgRVepRpnmdPHkSGzZswOHDhwEA//77L8aPHw8HBwccOXIEZmZmmDFjBtq0aQMAePv2LWJjY6GmpgYTExNIJBI5fwMiIpKnKhOIAGBra4vffvsNNjY2AIDQ0FD88ccfmDRpEgYMGAAlJSUkJiZi48aNOHbsmHhJ1cjICDNnzoStra2cvwEREclLlQpE6RJux48fF7fl5OSIz0iMjo7GDz/8AC0tLYwbN05msv769euxcOFC9OnTR47fgIiI5KVKBSIA2NvbY9GiRejevbvM9rS0NDg7O6Nly5ZYtmwZ1NTUZPZfuHABP/30Ew4ePIiaNWtWcNVERCRvVWJQTV4fjjiVOnbsGJSUlLB06dJ8YQgAXbp0QatWrXDgwIEKqpSIiBRJlQvE7t27Q1VVFUFBQTLbY2JiYGNjA3V1dXHb1atXZdr069cPf//9d4XVSkREiqPKBSIK6SUaGBggNTVVfJ+eno758+fjwoUL4jYbGxuMGzeuQmslIiLFUCUD0cbGBvr6+jh58qS4zd7eHhcvXkRiYiKQO1l/0qRJWLlyJbKzswEAtWrVQpcuXfDtt9/i+fPncqufiIgqXpUMRAD4+eefZXqJZmZm6NmzJ1avXg0AOH/+PHbv3o3Xr18jNjZWbKeiooL69etj/fr1cqmbiIjko8qNMs3L2dkZbm5uGDhwIJD7jMSRI0dCV1cX9+/fx/DhwzFu3Dhoa2vLHPfq1Ss4Oztj3bp1aNmypZyqJyKiilSlA/Gff/6Bm5sbrly5Im57+PAhtm7dinHjxsHExKTA486dO4dly5bB0NAQnp6eUFJSqsCqiYhIHqrsJVMAaNWqFRo3boxDhw6J20xMTLBkyZICw/DevXuYMmUKZs2ahT59+iApKUlmkj8REVVdVbqHCABRUVEYPnw4rl+/Xmib5ORkbNq0CQcOHEDnzp0xffp0mJqaIiQkBL///jsOHjwoM12DiIiqnirdQwSApk2bonXr1ti3b1++fVlZWdizZw8cHR0RERGBtWvXYvXq1TA1NQUA2NnZwcbGBo8fP5ZD5UREVJGqfA8RAO7evYs5c+bg4MGD4raMjAx8/fXXSExMxIQJE+Ds7MwnXhARVWPVIhABYMGCBdDT08Ps2bPFbYGBgejcuTN0dHQKPObhw4d4/vw5PvvsM9SvX78CqyUioopWbQIRABo1aoSzZ8+iXr16RbY7deoUNm3ahAcPHkBJSQmCIKBdu3ZYsmQJDA0NK6xeIiKqOFX+HmJe27dvx5gxYwrdn5OTg19++QU//vgj2rZtC19fX4SFhSEgIAB169bFt99+i/T09AqtmYiIKka16iECwMSJE9G5c2e4urrm27dlyxZ4e3vDw8NDfMiwlCAI+O6779CmTRtMnDixAismIqKKUO0CEQC0tbWRmJgIVVVVcdu7d+/Qq1cvfP/99xg2bFiBx128eBGLFi1CYGBgBVZLREQVoVpdMpXy9PSEm5ubzLZnz57h7du36N27d6HHtWvXDnXr1kVSUlIFVElERBWpWgbi0KFDkZqaKrMKjYGBAZSVlZGWllbocWpqati1axf09fUrqFIiIqoo1fKSKQAkJiaiWbNmiIuLE7fNnTsXxsbGmDp1qlxrIyKiildtAxFIYFcHAAAgAElEQVQANmzYgLt372LlypVA7rzDUaNGYc2aNWjTpo3Y7u3btzh69ChCQkLw77//4vXr19DS0sLq1avRqlUrOX4DIiIqK9U6EAGga9euWLNmDTp06AAACAoKQlBQEJYuXQpBEODj44Nt27ZBW1sbffr0gbW1NUxMTKCmpgYVFZV8j44iIqLKqdoH4p07d+Ds7Ix//vlHZntaWhrmzZuHW7duYcaMGfjiiy+4tBsRURVWLQfV5GVhYQEnJyesWLFC3JaZmYkZM2YgJSUFPj4+GDhwYL4wvHr1Khf9JiKqQqp9D1GqSZMmOHPmDExMTLBy5UqEh4djy5Ytha5zunv3buzYsQMWFhb45ptv0KlTpwqvmYiIyg4DMde5c+ewc+dOLFmyBF999RV2794NY2PjIo+5fv065s2bB4lEgkOHDslM9Cciosql2l8ylerWrRvMzMyQlZWFb775psgwjI+Px08//YRJkybB3t4ee/bsYRgSEVVy7CF+YOPGjfj2228L3Pf27Vt4e3tj586daN++PWbMmCE+TJiIiCo3FXkXoGgMDQ3h4uICHx8fcZsgCDh+/DjWr18PHR2dAhf/BoCXL19CS0sL6urqFVw1ERF9Kl4y/YCTkxMyMzMREBAgbvvpp5+wcuVKuLq6Ys+ePQWGIQCsWbMGQUFBFVgtERGVFV4yLUBKSgoaNmyIhIQEAEB0dDSMjY0LHXGK3EE5ixcvhr+/P7S0tCqwWiIiKgvsIRZAR0cHS5cuFdc0tbS0LDIMpaNNf/jhB4YhEVElxUAsxKRJk3Dt2jWEhYUV2kYQBOzduxeTJ0+Gq6srHBwcKrRGIiIqO7xkWoR79+7h66+/xsWLF2W25+TkIDQ0FDt37kRMTAzmzJmD/v37y61OIiL6dAzEjzhy5AisrKxw4MABAMD9+/dx69YtZGRkwMHBAa6urjA0NJR3mURE9IkYiMXw6NEjhISEICEhAbq6umjatClat25d5H1FIiKqXDgPsRgSEhKQnZ2N6dOny7sUIiIqJxxUUwxt27ZFREQENm/eLO9SiIionPCSaQn0798f+/fv59QKIqIqiD3EEvDw8EC3bt3kXQYREZUDBmIJNG/eHN9//32hi38TEVHlxUAsoTFjxkAQBHh6esq7FCIiKkO8h1hKVlZW8PHxQbNmzeRdChERlQEGYim9fv0a5ubmePHihbxLISKiMsBLpqWkq6uLPXv2YODAgfIuhYiIygAD8RP06dMHNjY2+OWXX+RdChERfSIG4idasGABwsPDERgYKO9SiIjoE/AeYhmpW7cu/v33X+jp6cm7FCIiKgX2EMvI33//jR49esi7DCIiKiUGYhlp2rQppk+fjokTJ8q7FCIiKgUGYhlydXWFRCLBtm3b5F0KERGVEO8hlsC9e/dw48YNPHjwAMnJyYW227RpE5ycnFCnTp1yr0lZWRlGRkZo164d2rVrV+6fR0RUVTEQi6lfv36IiIhAcnIy3r17J+9y8tHQ0ICZmRm8vLzQqVMneZdDRFTpMBA/IiMjAy1atMC9e/fkXUqxaGho4Pjx47C1tZV3KURElQoD8SOaNWuGqKgoeZdRIhoaGrh27RosLS3lXQoRUaXBQTVF2LRpEx48eCDvMkrszZs3GDVqlLzLICKqVBiIRdi9ezfevHkj7zJK5dq1a0hKSpJ3GURElQYDsQgxMTHyLqHUatasiStXrsi7DCKiSoOBWISPPdqpW7duOHToEJ49e4aMjAw8evQIvr6+MDIyKvN2W7duhSAIBb4CAgIKrC8hIaEMfgUioupBRd4FVFbjx4/Hn3/+ic2bN2PEiBF49eoVDA0N0b59e5kgLat2CxYsgIeHBwBg/vz5+OyzzzB16lQAQGpqqhx+ASKiKkagQtWoUUMAkO9lYmIivH37Vhg7dmyB+8urnfS1evVqwc/Pr8g2devWFXx8fOT9ExIRVRq8ZFoKLi4uePr06UeXaCvrdkREVH4YiKVgaWmJq1evymyLi4tDVlYWsrKyMGPGjHJpR0RE5YeBWArKysrIycmR2WZnZwcrKyvcunULysrK5dKOiIjKD/+mLYWYmBi0bt1aZltUVBRu3rwpM2+xrNsREVH5YSCWwoEDB2BhYYHBgwdXaDsiIio/nHZRCrdu3YKHhwd8fX3x22+/4cSJE0hOToaRkRHq1q1bbu2IiKj8MBBLac6cObh9+zYmTZqEGTNmQEVFBQkJCYiMjMTFixfLrR0REZUPPu2iCGpqasjMzJR3GaVSt25drFmzBl999VWx2i9evBgmJiYYMmQI9PX1y70+IiJFw3uIRahfv768Syg1NTU1qKmpFbt9//79cevWLTg4OMDd3R23b98u1/qIiBQNe4hFqIzPQpTS1NREREQEmjZtWqLjTp48iUWLFkFbWxsNGjTA8OHD0adPH0gkknKrlYhIEbCHWITu3bvLu4RS09DQQOPGjUt8XGBgIPr06YNjx47B0dERR48eRXZ2drnUSESkSNhDLMLLly9Rr149ZGRkyLuUElFTU8OCBQuwYMGCEh339OlTODo6Yvv27WjZsqXMvrS0NNy+fRvKyspo0qQJdHR0yrhqIiL54ijTItSuXRu7du3CuHHjkJycLO9yiq1jx44lDkMA8PPzQ7NmzfKF4bZt27B9+3bo6upCS0sLz549Q5cuXfDtt9+iUaNGZVg5EZH88JLpR3z55ZfYunUratSoIe9SPkpZWRlt2rTB2bNnS3xsRkYGDh8+jOHDh8ts37hxI7y9vfHrr7/i+PHj8PPzw7Fjx2BsbIxRo0bh1KlTZfgNiIjkh5dMiykpKQnz58/HmTNnkJ2djUePHsm7JACAiooKdHR00LFjRwwYMABnzpzBixcv8Ouvv6Jr167FPo+/vz82bNiAgIAAMfwfPnyIYcOG4ZdffkGfPn3yHXP27FkYGRmV6l4lEZGiYSBWQadPn8aQIUOgrq6OAQMGoG3btrCyskKbNm0KnWPo4uKCHj164NtvvxW3rVu3DufPn4evr2+xPvfff//F+fPn8ebNG5iYmKBbt27Q09Mrs+9FRFSeGIhVVFJSEtq1a4f79+/LbNfX14eVlRXs7OxgZmaGDh06ICMjA5MnT8aRI0dklopzc3NDhw4d8N133wEAcnJyEBAQAHt7e2hqasqcd+3atdizZw+sra1Rv3593L9/Hzdv3sTQoUMxYcKEEs2JJCKSBwZiFZaUlAQ7Oztcv3690DbTpk3DxIkTER4ejvbt28PPzw9WVlbo3bs3XF1d4eTkhBEjRgAAXrx4gdmzZyM2NhYDBw7EpEmToK2tjT179mDDhg1Ys2YN2rdvL5773r17WLJkCfT19bFmzZoK+c5ERKXFQKziihOKrq6ucHR0hLu7OyIjIwEAQUFBOHHiBFRUVLBs2TKZ9ps3b8bBgwdx9OhRZGRkYODAgZg4cSJcXFzynfvt27d48eIFGjRoUA7fjoio7HDaRRWnr6+PyMhIuLq6wtvbu8A2Xl5e8PLyEt+3adMGnTp1Qp06dTBhwgQEBgbi888/F/cHBwfDyckJqqqqOHXqFHJycuDk5FTgudXV1WXCMCEhAcHBwXj+/DkMDAzQtWvXSr1EHhFVHRJ3d3d3eRdB5c/R0RGxsbFF9hSRG4YhISHQ1dVF3bp10ahRIyxfvhzXrl2DpqYmHjx4gP379+OXX36BpqYmAgICoKqqikGDBonnWLVqFVJSUmBqagpl5f+f2XPq1Cl89913iIuLQ82aNRETE4O1a9ciKioKrVq1gra2drn+BkRERWEPsRqR9gIL6ylqaGhg8uTJMiNRe/bsifbt2+PIkSPYsmUL7ty5A3t7exgYGAAAsrOzoaIi+3+jevXqYfPmzVi5ciV+/fVXtGvXDrdu3cLChQsxefJkjBo1SmyblJSEVatWwc3NDfv378erV6+goaGBOnXqlNOvQERUMN5DrIYKu3w6efJkvH37FqdPn8bMmTPxww8/5GuTmZmJd+/eQUtLC8jt9S1btgxHjhyBrq6u2O7q1auYPHkyjh07htq1a4sDcDw8PAqs6d9//0WTJk2we/dubNy4ET169MDw4cPRpk2bMv3uRESF4Uo11ZCXlxc8PT3zbR86dCi2bduGsLAwPHr0CNra2li0aBFSUlLENjVq1BDDEAB69+6NJk2aYMaMGYiLixO3+/r6wt7eHrVr10Z8fDwiIiLwzTffFFpTkyZNAAAjR46Ev78/zMzMMGHCBHz99dc4cuRIpVtPlogqHwZiNeXq6povFM3MzAAAn332Gf744w8kJiZCQ0MDDRs2xPfff4/Y2Nh851FWVsaaNWvQsGFDDB06FAsXLsTBgwcRGhoqLgMXHR0NVVVVtGrVSjzu4MGD2LVrF16/fp3vnAYGBrC2tgYADBo0CIcOHcKAAQNw8+bNMv8diIikGIjV2IehKA1EKVVVVcybNw8JCQlo1aoV+vbtixEjRiAiIkKmnaamJn766Sfs378f5ubmCAoKgo2NjRiA2dnZUFZWlhlgY2RkhPPnz2PAgAHYs2dPvtr27dsHW1tbDBs2DJ6enli7di3Mzc0BALdv38a1a9fK/PcgompOoGrP09NTaNOmTbHa+vn5CZ07dxb69u0rnDx5sljHxMfHC9bW1kJ4eLjM9tTUVKFHjx7CmTNnZLa/ePFCsLa2Fq5cuZLvXJs3bxb69esnhIaGFuuziYiKiz1EgqurK/z9/YvV1tnZGRcuXMDcuXOxbt06dOzY8aNrndatWxejRo3CwoULZaZ9BAQEQEdHB7a2tjLtDxw4ADMzM5lVb5D75I1Dhw7hr7/+Qo8ePWT2xcfH8z4jEX0SjjKlT3Ljxg385z//wblz5zBz5kxMnjy50La7d+/Gli1b0KJFC9jZ2cHHxweDBg2Cq6ur2Obdu3dwcHDAhAkTZCb7h4aGYv78+fD09ISlpSUA4MmTJ9ixYwfCw8Px9OlTDBw4EAsXLiznb0xEVRV7iPRJWrduDW9vb4SGhuLu3bvQ19fHL7/8gjdv3uRrO3LkSBw7dgx9+/bF5cuXUaNGDTg6Osq0OX36NDIyMtC/f39xW3Z2NtauXYsxY8aIYYjce5ympqb45ZdfUKNGDZnFAeLi4jgIh4hKhIFIZaJ+/fpYuXIlnj17BiUlJRgZGWH69Ol4+vSpTDstLS0MGjQIv//+O3x9ffM9jmrv3r0YPHgw1NXVxW1nzpxBcnIyRo4cKdO2bt26GDFiBMLDw2FqaiozZ1FJSQmzZ88ut+9LRFUPA5HKlIaGBhYsWICkpCQ0adIEw4YNg5OTEwICAj567JMnTxAdHY2hQ4fKbA8KCoKdnR00NDTyHZOdnY0DBw6IUzyktLW1kZCQgPT09DL4VkRUHTAQqdxMnjwZ586dw9ixY+Hp6Yn69etj4cKFiImJKbB9vXr1cOLECdSrV09m++XLl9GtW7cCjwkJCUFGRobM4uPIXRIOuSvrEBEVBwORyt2AAQNw4MABXLt2DTo6OhgwYAD69u1b4OhUPT09mfeZmZl4/fp1vjmSUnv37sWQIUPyPYA4Pj4eEokEOjo6ZfxtiKiqYiBShalTpw7mzJmD27dvY/78+Th+/Dj09PQwffp03Lhxo8Bj0tLSAAC1a9fOt+/ff//FjRs38OWXX+bbd/nyZTRr1gwSiaQcvgkRVUUMRJILOzs7eHt7Iz4+Hk2aNMHYsWPRpUsXbNmyBdnZ2WI7PT09qKmpIScnJ9859u7dC1tbWxgaGubbFxwcDDs7u3L/HkRUdTAQSa7U1dUxefJkXL58GevWrcP169eho6OD8ePH48KFC1BWVsaoUaOQkJAgc1x2djYuXbqUbzANcu8rPnr0CP369avAb0JElR0n5pNC2rFjBzw9PVGnTh24u7ujWbNmUFJSkmmTkZGR797hmzdv8M0338DW1hbff/99BVdNRJUZA5EUWnR0NLZv3w5PT0/07t0bbm5u+UaUSmVnZ2PWrFl4/vw5tmzZAk1NzQqvl4gqLwYiVRoHDx6Ep6cnbt26BTc3N7i5uaF+/foAgJSUFLi7uyM2NhabNm2CgYGBvMslokqGgUiVzpMnT+Dp6QlPT080b94ce/fuxb59+/Dq1StMnjxZZpWbkhAEAc+fPy/zektLW1tb5mHMRFS+GIhUqQUGBiI4OBhWVlZo1aoV1NXV0ahRoxKdY+HChdi5cyfi4+OhoqJSbrWWlJ6eHrKysuDo6Ii//vpL3uUQVXkMRKoSkpOT4enpie3bt6N27dqYOHEiHB0di+wtvn37FiYmJkhLS1P4Jd4kEgkePHiQbxUfIio7DESqci5cuAA/Pz9s27YNdnZ2cHR0hKOjI2rWrCnTrlatWkhMTJRbnSWlq6uLW7duifdNiys9PR1//fUXtLW10bJlS3Tp0gXIvfSckZEBHR0d6OjolPpSM1FVwUCkKu3kyZM4dOgQ/P390bp1azEcJ02ahKNHj8q7vBJr1KgR7t27V6Jj9u3bhz/++EM8fu/evQCAuXPnIigoSGwnkUigra0NHR0ddO3aFbNmzQJyp7JcvHgR9+/fR3Z2NkxMTNCxY8cCVw+Sys7O5ipBVOkozg0TonLQt29f9O3bF3/99RdCQ0Ph7++Pzp0749GjR/IurVTi4+Nx/vx5dO3atdjH+Pn5QUVFBa1bt8bVq1cRHx8PQ0NDcZWfly9fIjAwEDk5Oahbty5SU1ORkZEBALhy5QoWLFiAly9fypxTIpFg3759MDExAXID0NfXF0ePHsX9+/chCALq168PGxsbjB07Nl94Pn78GM+fP4dEIoG5uTm0tbXL5Pch+hTsIVK1c+rUKTg6Oir8fcPCrF69GlOnTi1W2/DwcHz33Xfo0aMH2rVrh9WrV2P+/PlwcnIS2zx8+BDOzs7Q09PD6dOnxe1PnjzBiBEjkJ6ejs6dO8PFxQWampqIjo5GTEwM5s2bBwDIycnBnDlzEBoaCiUlJbRo0QKampq4e/cusrKycPToUXFO6I0bN7B8+XLcvXtX/BwlJSV07twZq1atgrLy+8WzTp06BW9vb8yaNQtWVlZi23PnzuHu3buwsbFB06ZNxTpzcnLQoEGDT/5tqXpjD5GqnYcPHxYYhnfv3oW5uXmBx8yePRseHh4AgFGjRmH8+PFo3rw5NDQ08PjxYxw7dgwzZsxA3n9flnU7qbi4uGJ/13379gEA+vfvDyMjIyD3HmveQExJSQFyp3nktXfvXqSnp6NVq1ZYtWqVeAk074OYkTvSNzQ0FGpqali/fr0YYNnZ2Xj48KEYhtHR0Zg8eTIyMjJgaWmJXr16ITMzE1evXkXdunXFMHz69CmWLVuGFi1aiOd68+YNVq5cCX9/fyD3uZvSQAwPD8evv/6K3377Db169Sr2b0P0IQYiVTtv374tcPvnn3+OGjVqAAAOHToEPz8/7N69GwDE+Yk7duyAg4MDVqxYgdmzZyMzMxOmpqaoVauWTHiVdbu8ijsQKD4+HmfPnoWOjg66d+8OiUQCLS0tXL58GVlZWeIUE+kTRT4MxKtXrwIAvvzyS0gkEnFaira2tsySecePHwcAuLi4yPTmJBIJGjZsKL7fsGEDMjIy0K1bN3h4eMjcY8y7oLu3tzfS0tIwadIkAMC9e/cwa9YsPH78GNra2khNTZWp1cHBAVu3bsXGjRtLFIhJSUnw9vZGZGQkYmNji31cRbCzs4OtrS0XqK9gDESiXHkfXJyRkYH4+HhERUWJ24YPH46hQ4eiY8eOuHnzprhdGhzl1a609u/fj5ycHGRmZmLs2LHiJP/09HRERkaiQ4cOQBE9ROl9Q+lUjzlz5uB///sfAEBFRQUBAQGoXbu2GCbS823ZsgUJCQnQ1taGtrY2hg8fDlVVVYSFhQEAvv3223wDbqTv37x5gxMnTqBhw4Zo1aoVAEBfXx/KyspYsWIFDhw4gMuXL8s851JFRQU2NjY4cuQIHj58KN7XLIq/vz/c3NzEB0krmpCQEADAtGnTsGjRIujr68u7pGqBgUhUTK6urvD19ZUJr4poVxqZmZk4fPgwAKBmzZp4/Pgx0tLSxF7nhQsXxABLTU0FgHwPU5ZOw5BeXu7VqxcaNWqEgIAAZGVliQEq7d1J2wcFBcncI3R2dsarV6/EkaeNGzdGVlYWBg0aBB0dHWhra6Nhw4ZYsGABoqOjxXuWUrVr18a+ffsgkUiwfft2oIDwbt++PY4cOYIrV658NBC9vLzg5uZWqt+1oq1evRohISG4du2avEupFvj4J6JisrS0REREhPi+RYsWyMrKEl/t27cvl3alERgYiKSkJJiZmeHo0aMIDg5GWFgYVq5cCeQGInIvH+ftIea9dNisWTMg99mSADB69GjMnTsXyO3RSS+b1qlTB8jTw966dat4rw8AtLS0xPuDgiBAEARkZGRAV1cXSUlJuHHjhtgTf/DgAQDAzMxM5vtIe5CF9Wala9fGx8cX+bvExsZi2rRpJfgl5S8yMhLu7u7yLqNaYCASFZOysrLMg4rv3r0LKysrdOrUCRKJRHw8VVm3K439+/cDAAYMGCBuS05ORocOHSCRSHDv3j3Ex8dj06ZNMj3EvEE0bNgwIPd+qoeHB86fP49z584BHwRSt27dgNx7fy9evICWlpbY29TQ0IBEIoGhoSHU1dWRk5ODmzdvQktLC76+vli8eLHM+V6/fg3kLltXkMJ6sxoaGkAR94elpk2bhuTk5GL9hopk8eLFCnt5tyrhJVOiYoqJiUHr1q3F9xkZGbh582a+FV7Kul1pbN68GSkpKVBTU8Ps2bNx+vRpREZGIjIyEvPmzcPTp0+RlJQEfX196Ovro3379vl6ZVZWVli4cCE8PDywd+9ecUI/PghEFxcXnDp1Cvfu3YOjoyMaN26cr51EIkGfPn1w9OhRLFu2DIsWLULTpk3FAJS2kw5qKijYBEEodACQ9H7nx+YzXr9+vdi/oaKJjIzkIJtyxkAkKiY/Pz8sX74cy5YtK3Jif1m3+9DZs2exdOlSGBkZwdjYGMbGxoiNjUVsbKwYepGRkQUe6+joCFdXVwCAr68vzpw5g5kzZ8LFxaXAyf6DBg1Cz549ER4ejqdPn0IikUBfXx/NmzcX22hqamLr1q3YuXMnQkJCEBMTA4lEgnr16onLxAHADz/8gDt37iA6OlqsQUoaZNLLrwkJCflqSU9PF3vUHz4FRHq5trBpM8gdVapoo0lLIiQkhIFY3gSiamb9+vUCgCJfkZGRwpQpU2S2qaioCOfPnxcePnwoTJw4UWjXrp3QsmVLwdnZWRAEQejQoUO5tKuI1+jRoyvkt8/MzBQCAgIEd3d34YcffhBmzpwp/PHHH0JERIQgCIKQlJQkdOzYUZg6dWq+Y+Pi4oQOHToItra2+faNHTtWsLa2FhISEgr97ODg4I/+DmpqakJSUpIgCILw5MkTQVlZWQAgzJs3r9DzxsXFicdbWFgIW7duFWJjY4W3b98Kz549E/773/8K1tbWMp9T3HZ5X4sWLSrlr07FxR4iUTFlZWXB3t4eP/74I2bMmAETExO8e/cOcXFx2LlzJx4/flwu7T5kamoKAwMDxMTElNni5BcvXoSdnR1q164NAwMD8ZX3vfTPhd3fKw5VVVUMGDBA5t5mXnp6eujcuTOuXr2KlJQUmXuF+vr6+PPPP5GVlSVzzIMHD3D9+nX06NGjyPVVi6N///7Q09NDamoqjI2N0aNHD4SEhCA+Pl683GppaQl1dXXcu3cPqampYm+2e/fuOH78OLS0tJCRkYHY2Fjo6enhiy++EFf1KUk7kgN5JzJRRStOD1GRXxMnThS/S1ZWlhAWFiaMHz9eqFu3boV8voqKimBoaCi0aNFCsLW1FZycnIQJEyYIP/74o/Cf//xH8Pb2Fo4dOyaEhYUJd+/eFXtcxXX//n3B2tpa2LRpU7Haz549W+jcubMQFRVVZLvi9BD37t0rCIIg9sb++uuvfG1u3rwpCIIg2NnZidskEokQGxsrCIIgHD58WKhVq5a4r0GDBiVuxx6ifLCHSFSJSSQSdOrUCZ06dcLmzZvh7+8PLy8vcQ5icU2ZMgWvXr0SX4mJieL/5h0Ji9yebXx8/EenOOSlrKwMDQ0NaGpqQlNTU+bPH76fMGECTp48iczMTNy9excnT54s8NgGDRogKysLr1+/xrx589C4cWMIglDq0blaWloYOHAgEhMT4eHhgTlz5uDLL7/ElClT8vVKP9SjRw+YmpoiOTkZI0eOFEfDApC5P1zcdiQfDESqdoyMjKCpqVlpF/cu6iHB0sdbxcbGwsvLC15eXuLcvqI4OzsXOmBDGo6vXr1CUlISEhISZMLzwxB99epVvrDMyclBWlqaOEq0KNu2bQNyL5EWNdXAzMwM7u7ucHFxQVJSEgwMDMT2mpqaUFNTQ40aNcTXx0Jt8ODB0NTUxJEjR5CWlobTp09j0KBB6NOnj7g8XWEsLCwAAGFhYUhNTYWjoyMOHTok7l+zZg2mTZtW7HYkHwxEqnbat29f6Dqhik5DQ0NcYaYo0rBwd3cvVq+xqBGMNWvWRM2aNYscwVmQjIwMpKeni0GYlpaW731pt6WnpyM2NjbfaFWp9PT0Ev+Dx8XFBQDw3//+FwBw5MgRDBo0CF999dVHA1G68IA0dJOTk3H9+nXUrVtXXFS9JO1IPhiIVO2YmpqiadOmlXI5rNq1a8Pe3r5ExxSn11jYNI1PoaamBjU1NdSsWbPMz43c0PswNN+8eYO3b98iMzMz3+vmzZtYu3ZtgefS19fH559/DuQuuL5jxw5xn6OjI9TV1Yuc9P/w4UMg90kgysrKCA4OhpWVFebNm4fly5eXuB3JBwORqqX9+/ejZcuWH13ZRJFoa2vj999/h6qqaqmOL6rXGBoaWsbVlj/pPUXp3MWPCQkJKTQQnZ2dUaNGDSQnJ8uM7jU1NYWuri769++PgwcPFnru0BxIrVYAAALTSURBVNBQpKeno169evj555+xZMmSfPdeS9KO5INLt1G1ZG5ujgsXLsg8xkiRaWpqYsOGDeJlvU/l6OgIf39/3L9/H4sWLYKenl659BIrC+nvunz5crRs2VJ8rV+/XmZ/YVJTUzF79mwAwKJFixAXF4dbt25hwYIFpWpH8sEeIlVbbdu2xZ07dzBixAiEh4dDV1dXfEagIpBIJHj16hWaNm2KdevWiWuGlqW8vcbqulamoaGheP/0w17g/v37MW/ePAwYMAA6Ojri4uIF2bBhA+Li4jBt2jS0bt0ajRo1wosXLxAcHIxjx46VuB1VPCWhso4uICpDr169wrVr1/Ds2TN5lyKqWbMmrKysihxVSsUXEhKCnj17yruMUlu0aBGfelHOFOefw0RyVKtWLfTu3VveZRCRHPEeIhFVC5V9YWx9fX15l1DlMRCJqNpo06aNvEsoNSsrK3mXUOUxEImo2qisvUQ9Pb1KW3tlwkAkomrD3d0dpqam8i6j2KTrsnp5ecm7lGqBgUhE1Ya+vj78/f2hq6sr71KKRRAETJ06FY6OjvIupVpgIBJRtWJlZYUHDx5g8ODB8i6lSHp6ejh06BBWr14t71KqDc5DJKJqKzIyEpGRkYiNjZV3KSJ9fX1YWVnBysqKI0srGAORiIiIl0yJiIjeYyASERExEImIiN5jIBIRETEQiYiI3mMgEhERMRCJiIjeYyASERExEImIiN5jIBIRETEQiYiI3mMgEhERMRCJiIjeYyASERExEImIiN5jIBIRETEQiYiI3mMgEhERMRCJiIjeYyASERExEImIiN5jIBIRETEQiYiI3mMgEhERMRCJiIjeYyASERExEImIiN5jIBIRETEQiYiI3mMgEhERMRCJiIjeYyASERExEImIiN5jIBIRETEQiYiI3mMgEhERMRCJiIjeYyASERExEImIiN5jIBIRETEQiYiI3vs/6UwfOlFQf1IAAAAASUVORK5CYII=;" vertex="1" parent="1">
          <mxGeometry x="40" y="40" width="452" height="475" as="geometry" />
        </mxCell>
        <mxCell id="_WpON1TOEkIr62-E9Z8a-2" value="" style="shape=image;verticalLabelPosition=bottom;labelBackgroundColor=default;verticalAlign=top;aspect=fixed;imageAspect=0;image=data:image/png,iVBORw0KGgoAAAANSUhEUgAAAJIAAADFCAYAAAC/8KvBAAAgAElEQVR4nO2deVSTV/7/3yySACKyCgiKUkREgYIoiggqClqLjrW4UMTS1FpbBzv1tNatIo7V0lZrz9gOU5VSHcRRRLGIVgoKVisIUiMuUBaVVTCykxByf3/8JF8SniQggaTNfZ1zj/I893PzSfLO3e/n0SKEEFAo/URb1Q5Q/hpQIVGUAhUSRSlQIVGUAhUSRSno9sd4x44duHnzJm7evImqqirleUXpN56envDw8EBYWBh8fX0H/PVeqEb69ddfMXXqVNy+fRtGRkaYMGEChg8frnzvKC8Mj8fDL7/8gvnz5+PTTz8d+BckfaSqqoqYm5uTv//978TW1pYAoEnNk76+PvnHP/7R16+6T2iRPk5Irly5Enw+H5cuXUJjY+PAKZyiVPT09PDTTz8hICBgYF6gL6p7+PAhsbKyIt7e3ir/ldHU9zRjxowBq5H61EfKy8vDmDFjcP369YFRNWVAKSwsHLCy+ySkW7duoa6ubsCcoQwsT58+HbCy+zxqGzlypMI8OTk5SE9PF//9/fffgxDCmMrKysT5bGxssH//fhQVFaGtrQ319fX47bffEBoaKlE+i8XCRx99hLy8PDQ0NKCpqQmFhYXYvXt3D19CQkKQnp6OJ0+eoL29HWVlZfjxxx9hbm6ON954Q6ZfhBDY29sDAMzNzfHVV1+hpKQEfD4f1dXVSE1Nxbhx48Svs3DhQqSnp6OhoQEtLS24e/cuPvroIwlfTE1N0d7ejm3btvX5s2GyLS4ulmkbFxen8HtSJv2aR2LC1dUVo0ePhqGhIcaOHYuSkhJs3boVX3zxBQBg7dq18PX1FYujo6MDADBx4kRkZGTg3r172LJlCx48eAADAwM4Ozvj8ePH4vINDQ2RmZkJCwsL7N27F7m5uQAAe3t76OvrS/jy7bffYtWqVfjyyy+xfft2tLS0wNraGm5ubqivr8fZs2fh7OwMAPDw8MCxY8cwceJEdHZ2AgAqKipgaWmJ69evQyQSYfPmzSgsLISlpSVmzZolnjvbuHEjPv/8cxw8eBDbtm2DQCCAi4sLBAKBhD9hYWGoqalBREQEdu3aBUJIrz4bWbbz5s2Dnp4eAODw4cMoKCjA119/DQBoaGhQ6veqkL50qHbs2EH8/f3ldui++eYbEh8fT86dO0d27drV4/7WrVtJdnZ2j+v5+fkkOTmZaGtryy1/3759pKysjJiZmcnNt2jRIiIQCHo9MOjqiOrq6kpcP3ToEHn48CExMjJitBszZgwRCoUkMjJS4Wv8/vvvZO3atYTH45GAgIBefza9sb106RLj5y2dBgqlLpGw2WyEhoYiMTERx48fx+rVq6Gjo6PQzs3NDe7u7tiyZQtEIpHMfFpaWggPD0dMTAzq6+vllrl69WqcOXOmXwMDHR0dLF26FF9++SWampoY8yxduhQ8Hg//+te/5JY1depUODk5ITExEadOnQKHw+m1H/2xHSyUKqTXXnsNQqEQFy5cwOnTpzF8+HAEBQUptHNycgKfz8edO3fE1/bu3QuhUAihUChu2iwsLGBiYoKbN2+K8y1YsECcTygUwsnJSVxm93yGhoYS+dasWaPQLysrKwwbNgy3b9+WmWfcuHG4e/cuhEKh3LI4HA5SU1PB4/Fw9OhRLF68GKampgp96K/tYKFUIXE4HCQmJkIoFKKlpQXJycm9+vVoa2v3qIn27dsHd3d3bN26Fbq6uuJ8ACTyZmVlwd3dHYGBgdDR0YGWlhZjmW1tbXB3d4e7uzsqKyvFZcmjy769vV1uHnn38VzEy5Ytw9GjRwEAly9fRm1tLcLCwhT60B/bwURpQnJwcICfnx/WrVsn/tWvWLECCxcuxIgRI+TalpSUQF9fHy+99JL4WnV1NbhcrkRHu7a2Fs3NzXB1dRVfa2pqApfLxf3793uU2T2fSCQCl8sFl8vt0QmWRW1tLVpbW+Hi4iIzT2lpKSZMmCC3nOXLl8PIyEj8I+vo6ICtrS3eeusthT70x3YwUZqQOBwOCgsLxf2drvT06VOEh4fLtc3JyUF5eTk2b94sN59IJMLp06fxwQcf9BihSXPy5EksWbJE3NS9CJ2dnUhNTcX69evBYrEY85w7dw42NjZYsWKFzHI4HA7i4uIkPpfg4GBMmjQJU6ZMketDf2wHE6UM/3V1dREeHo6dO3eCy+VK3IuNjcVbb72Fzz//XKY9IQRr1qxBSkoKTExMEBsbi/Lycujr68Pb21si76ZNm5Cbm4tr164hJiZG3H/x8vKSyBcXF4fQ0FBkZ2fjn//8J65evYqWlhbY2tpi2LBhvX5vmzZtwo0bN3D58mXExMSgqKgIRkZGcHV1xb///W9wuVwcOHAAcXFxGD9+PNLS0tDW1gY7Ozs0NDSgrq4OU6dORUREBO7evSsul8vlIjs7GxwOBzdu3GB87QkTJryw7aDTlyGerOF/cHAwaWhoIEOHDu1xb+TIkaSjo4PMnDlT4RDXy8uLJCUlkZqaGiIQCMiTJ09ITk4OiY6OlshnbW1NDh48SMrKygifzyfPnj0jd+/eJYcPHyampqbifHp6emTLli2Ey+WSlpYW0tzcTMrKykhSUhKZPHlyr4b/AIiDgwOJj48nFRUVRCAQkPr6enLx4kWJqYo1a9aQ3Nxc0tTURNra2siDBw9ISEgI+eqrr0h6ejrj+w0JCSGNjY3E0NCQ8bPpi62qh/99Wv2PiopCZmYmMjMzB1bdlAFjoE6f9bmPRI/BUZjok5C6lhYof04UDVD6Q5+E5OnpicrKygFzhjKw9GbB/UXpk5Ds7OwQGBgIMzOzAXOIMnDMmTNn4Arva++8qqqKGBkZEX19/V4thtKkHmnSpEmktbV1QEZs5EUWba2srJCWlgYrKyvx0gVFvbGyssKJEycGtI/Ur4mFyMhIMmrUKMa5F5pUm7S1tYm1tTV55513SEdHh/KqHhn0+RTJX5njx4/jzJkzSEhIULUrfzpo29QNNpvdYyU/ISEBhYWFCAoKgre3d6/2V2kiVEjdYBKSt7c3ioqKxNtZAgICMH/+fImdBRSANm3dyMzMRFRUFDIyMnrcEwgEiI+PR1xcHLS0tGBiYoKgoCDMnz8fY8aMUYm/6gSNRtINphqpCz09PYwfPx42Njb4+eefsX79epSVlSE8PBwrV67ExYsXB91fdYIKqRvyhITnx6A6OjrAZrMxd+5crF+/HkuXLsWjR48ktvVqIrSP1A1FQtLT00N7ezsyMjJw6tQp5OXlwc/PDwcOHMDLL788qL6qG1RI3ZAnpMrKSpw7dw51dXXYs2cP/va3v2H79u2wtLQcdD/VESqkbjAJqba2Fnv27MHVq1fh7OyMnTt3IiAgAEOGDBHnaW1tRWNjI6ysrFTgtXpAhdQNJiE9efIERkZGOHLkiMxN/levXsXx48dx6NChQfJU/aBC6gaTkFxcXBAVFaXQrrcnU/6q0FFbNxR1tmWhp6cHPp8/ID79WaA1khRdYmKz2QCAuro6bN68GQKBAAKBAHw+v8f/Ozo6BnTT2J8BKiQppIXEZrMxefJksFgssFgs6OnpQU9PT+L/VVVV+P7771XtukqhQpJCunkbOnSowjgBRUVFGt+00T6SFC/ST9LT06OdbVU7oG68iJAsLS2xc+fOAfPpzwBt2qSQJ6TCwkKcP38epaWlEAgEsLCwgL+/PwICAjBr1qxB91WdoDWSFLKEtH//fqxevRoFBQWws7ODi4sL+Hw+duzYgffff1/jmzZaI0nBJKTU1FScPHkSX3/9NaZNmyZxr7KyEhs2bMCBAwewcePGQfZWfaA1khQsFquHkJKSkvDmm2/2EBGeR+KNiopCcnIyWlpaBtFT9YIKSQqmGqm8vJxRRF04OzvDxMQEf/zxxyB4qJ5QIUnBJKTOzk4YGBiI/46OjsaxY8ck8hgZGQ1+SGI1ggpJCiYhmZubS0TNF4lEaG1tFf9NCEFNTQ2MjIwG1Vd1gna2pWCz2T1mqR0dHXHgwAGMGDECAoEADx48wIIFC8T3Hz9+DD6fL/EkAE2DCkkKphrp1VdfxcWLF8XrbY6OjvDw8BDft7OzQ2pqqkTzp2lQIUkh62ybdCxLafoSl/KvCBWSFPJmtgkhuHXrFgoLC9HQ0ABjY2NMmTIFjo6Og+6nukGFJAWbzWYcfZWUlGDLli0oLi7GyJEjYWxsjKdPn2L//v2YM2cOtm/frtFNGx21ScFUIzU2NmL9+vUYMWIEkpOTkZycjB9++AEpKSmIi4tDSUkJoqOjVeazOkCFJAWTkH766ScYGhoiJiamx05IFxcXHDhwAFeuXEFxcfEge6s+UCFJwSSkO3fuYO7cuRJHkLpjZWWF6dOnq0/wdBVAhSQFk5BaW1slnkZ07do1xMbGSuSxtrZGbW3toPmpblAhScEkJFNTU4kF2bq6Oty6dUsiD4/HG9jQemoOHbVJwSSkUaNGISsrCwYGBuLnyknPfhcUFMDX13eQvVUfqJCkkDUhefLkSSQmJopPkHR/JBieP15D+pomQYUkBZOQxo0bh7Nnz8q1o9FIKBIo2vzP4/Fw9epVVFRUQEdHB6NHj4aPj49GT0aCCqknsoRECEFsbCyOHDkCFosFOzs7iEQilJeXw8DAANu3b9foPtLAPcDrT0ppaSmxt7fvcT0+Pp7MnDmTpKSkEIFAIL7e2tpKvvvuOzJ9+nRy7969QfZWfaDDfylk7ZCMj4/Hxx9/jIULF0pMTOrr6+Odd95BcHCwRoe1oUKSgklIFRUVaGlpwdy5c2XaLVmyhM5sU/4PplMkra2tMDIykqiJoqKi8PDhQ/Hf1tbWaGlpkdiCq0lQIUnRm5ltAMjNzZV4CCKPx4OWlpY4iommQUdtUnSJoXtoG3Nzc2hra+OHH34Ai8WCQCBAW1ubxOnagoICjBo1CtramvnbpEJiQFpI2tramD17NpKTk8VxkcaMGSMxdzRz5kzY2tqq0GvVQh8hwYC1tTXy8/P7FKVWJBLh0aNHGD169ID6pq5oZj2sgBcJbfPs2TMsXboUQqFwwPxSZ6iQGGAauSmiqxnU1KgkVEgMvGjUNgAaGwKQdrYZYBLSJ598gpqaGnEkW+noth0dHYAG10hUSAwwCcnNzQ3t7e2MUW27/h8ZGUmFRPk/mM7/L1++XKEdi8XS2KaN9pEY6M8TADS1RqJCYuBFhbRt2zaNnZSkTRsD8oT06NEj/PTTT7h//z4aGhpgZGSEl19+GYsWLYKPj8+g+6ou0BqJAVlCSkpKwrJly5Camorhw4fDxcUFBgYGOHbsGF5//XX8/vvvKvFXHaA1EgNMQrp//z727t2LdevWISwsTGJxtq2tDZ9//jk2bdqEU6dOaeT5NlojMSDr/P/06dMRHh7eY4VfX18fmzdvBpvNRlZW1iB7qx5QITHAJKSqqip4eXnJtBkyZAimTJmisYEkqJAYYBKSrq4utLS05Np1dHRo7H4kzXzXCmASkq2tLUpLS+Xa3b9/H9bW1gPsnXpCO9sMMAlp4cKFKCgokGu3cuVKhbEm/6pQITHAJKTRo0eLN62JRCKUlpairq4Oenp6cHBwwLBhwyRCJmsaVEgMyJpH6jrflpCQAB6PJ76uo6ODOXPmYOPGjTAxMRlkb9UDKiQGZAlpz549uHDhAlatWoXZs2fD0tISz549A5fLxaFDh/Duu+8iPj5evDdJk6BCYkDWg23OnDmD7777TiJY+9ChQ2Fra4tp06YhLCwMp0+fxrJly1TgtWqhozYGmISUn58PFxcXCRF1x9jYGCtXrsS1a9cGyUv1ggqJASYhtbS0KDxV0tXUaSJUSAwwCcnExETiZC0TtbW1GvuEJCokBphOkbi6uqKoqEjucaPq6mq4ubkNgofqBz0gyUBpaSlmz56tcCabCZFIpJHLJJr3jnsBU9N2+/ZtvPfee0hJSZH77FpNFBGokJhhEpK9vT0mTJiA//znP5g3bx4+/vhjZGRkaOwebWlo08ZAW1sbzMzMGGMdEUJw48YNvP/++xg+fDg6Ozsxe/ZsBAUFwcPDQ2NrJCokBggh0NHRgUgkYrzf1taGmTNn4sKFCygpKcGlS5eQmZkJbW1tBAcHY+3atYPus6rRzJ+PArS0tKCnpyfzAACLxQIACIVCTJ48GevWrcPq1auhpaWFS5cuDbK36gFdIpGBdIyk7mhra0NHRwd5eXn47bff8PPPP8PJyQmRkZGYPXu2SvxVNVRIMpC1cNvc3IyUlBQQQhAdHY3AwEAcOnQITk5OKvFTXaBCkgHTse09e/aIjyKtW7cOixcvhrGxsfi+JgfbokKSgawwyVFRUfDz82McnXUF27p27Rp0dTXro9Wsd9sHmIT0zTffKLTB89A2miYkOmqTAQ221Tc062fTB2iwrb5BhSQDGmyrb1AhyYBJSDTYlmxoH0kGTEJ6+vSpQjtNDbZFayQZMAnp008/BY/HQ1BQEObNmwdLS8sedpoabIvWSDJgEtK2bdsQFBSEtLQ0vPrqq3j33XeRnJyMpqYmcR4fHx8MGzZMBR6rFrr6L4MNGzZgzJgxiIyMZLy/d+9e3Lp1C52dnaioqMD06dMRFBQEX19fjTzXRmskGSiaRzIwMICbmxtOnDiB+Ph4ODg44Mcff0RgYKBGxkiiQpKBIiF171QbGxtDV1cXjY2NMDIygqGh4SB6qh7QzrYM2Gw2GhoaZN5nsVgoLS3Fpk2bcPnyZXh4eCAyMhK+vr4auUuSCkkGbDYbNTU1Pa7zeDwkJyfjf//7H1paWuDs7IyEhATY29urxE91gQpJBkxN27lz5/DZZ5/B2toaq1atwquvvtqjGcvPzweLxcKECRMG2WPVQoUkA1nPtv3iiy/g7e0tMwzgzz//DENDQyokyv+H6bTt9OnTe2WniUskVEgykDVqE4lEMlf/BQIB6uvrJZ51qylQIclAVh8pKipKoe3ChQsH0DP1hApJBkxCmjZtGmJjY8VbRpi2kRw/fhx3795Vmd+qggpJBkyb/83MzGBmZibXbsiQIRq5+q95M2e9hKlGqq2tRUFBAeQtT9LONkUCJiE1NjZi3bp1MDMzQ2BgIObPn4+xY8dK5FmwYAHmzZs3yN6qHrr6L4PS0lLMmTMHJSUlEtebm5uRkZGB8+fPIycnB46OjggKCkJgYCBGjBihMn9VDRWSDKqqquDp6YnKykrG+83NzZg1axbee+89/PrrrygoKICbmxuCgoIQEBCgcXuSqJBkwOPx4ODgIHN7rUAggI+PD86fPw9zc3PU1dUhPT0d8fHx6OzsRFpa2qD7rEpoH0kGvdlGoqWlBYFAgIqKCpw+fRpnz56FsbExVqxYMai+qgO0RpKBohhJHR0d8Pf3h6OjI+7du4fp06dj2bJlmDp16qD7qg5QIcmha09SVzwkPJ8COHXqFJKTkyEUChEcHIzXX38dNjY2KvVV1VAhPef69es4dOgQFi1ahICAALDZbAwfPhzl5eUwNjZGcXExXnrpJXh7e2Ps2LEICQnB/PnzJUSmyVAhPae9vR0WFhZobm4Gm81GQEAArly5go0bN+Ls2bPIzc3Fs2fPUF5eDldXV+B5xDYtLS3o6Oio2n2VQ4XUjTfeeAPHjh1jvLdjxw588sknuHz5MtLS0lBUVISamhqIRCIYGBhg7Nix8PHxwYIFCzSymaOjtm74+/szCunWrVvo6OjA0qVL0d7ejjlz5sDPzw+2trYYMmQImpubUVxcjJycHMTHx2P58uV45513NKumIhQxDx48ICNHjiQAxMne3p7U1NSQ+fPnk/PnzxOBQCC3jNraWhIdHU3q6uoGzW91gDZtUoSGhuK///2vxDU+n4+6ujpkZGQgNDRUZb6pM3T1Xwp/f/8e1wIDA+Hj44OioiK5tkVFRWhsbBxA79QXKiQp/P39e3SWMzMzUVZWhilTpsi1PXfuHDZt2oTOzs4B9lL9oEKSwtHRkbFWGjt2LPz8/OTaRkZGQl9fH1988cUAeqie0FEbA35+fj36SVOmTIGhoSG2bt2KyspKxgMAXaH/2tvbERYWplHTAFRIDHQ1b923kHh5eYn/bWtrY9yv3f2ahYWFCt/B4ENHbTJYuXIlEhISxH9nZWVhxowZKvVJnaF9JBl07ye5u7sr7GhrOlRIMvDz88PQoUMBAHFxcX0KntXe3g4ejzeA3qkfVEgycHJyEkcYcXNzw4cffggulyvXRiQSITMzEyEhIT32ev/VoZ1tObi7u4PL5aK1tRVeXl5Yt24d7Ozs4OPjA0dHRxgZGYEQgqqqKhQXF+OXX35BR0cHNmzYAE9PT1W7P6jQzrYcYmJisHv3bnEz9fTpU1y4cAHZ2dkoLi5Gc3MzAGDEiBFwcHAQL+bq6+ur2PPBhwpJDt9++y1SU1ORkpKialfUHqU2bVlZWfjxxx+Rl5eHmzdvKrNolSIrFtKfCWtra3h6esLT0xM7duxQevlK62x/+umnWLRoEUpKSjBq1Ci4ubkpq2iKEmhpacHDhw9x8uRJeHh44Ndff1XuCyhjL8r27dvJyJEjSUhIiMReHprUMxkYGBAjIyNSVVWljK+fEEJIv4V05coVMnz4cLJkyRKVf0A09T6xWCzi4+OjHBUpY2PbmjVrUFJSgvT0dOVVk5RBQUdHB/fu3cNLL73U77L63UfKy8vTrL3JfyE6Oztx8uRJpZTVbyHdvHlTZqAFivqTnZ2tlHKUMmpjWjooLi7G8z5YjxQXFyfO5+XlhYSEBDx+/Bh8Ph9VVVVIS0sTb9vowsbGBvv370dRURHa2tpQX1+P3377rcceahaLhY8++gh5eXloaGhAU1MTCgsLsXv3bgDA999/L9OvsrIycTkTJ05EQkKC+NGj5eXlOHLkiPhApK6uLjZs2ID8/Hy0traCx+Ph+vXreOWVVyT8MTU1RXt7O7Zt29bnz+aVV14BIQS+vr4AAFtbW5l2hBCsXr1abBsTE4PGxkaFj7NoaWmRe7+3DNgSybx588QLnYcPH0ZBQQG+/vprABA/miE0NBRHjhxBQkICIiIiUF1dDVNTU0yePBlVVVXisiZOnIiMjAzcu3cPW7ZswYMHD2BgYABnZ2c8fvxYnM/Q0BCZmZmwsLDA3r17kZubCwCwt7cXzzZv3bpVvINx7dq18PX1FYuxa2PazJkzkZaWhuzsbISFhaGmpgZjxozB+PHjwefzoa2tjaSkJPj7+2PHjh3IyMiAoaEhpkyZ0uNpAV32ERER2LVrFwghvfpsAIDD4eDhw4fgcDjIyspCdXU1nJ2dxfe5XC7efvttXLt2DXgeigfPww+uWrUKPB4PISEhOHLkiNK+V5n0t7femxHCpUuXyK5duySuWVtbk9bWVvLhhx8qtM/PzyfJyclEW1tbbr59+/aRsrIyYmZm1iu/tm7dSrKzsyWuaWtrkwcPHpCkpCSipaXFaBcWFkY6OzuJh4eHwtf4/fffydq1awmPxyMBAQG9+mwAkBEjRhCBQECWLVtGWlpayLBhw3rkEQqFjGW+9tpr5OHDh2Tjxo093p908vf3V8qoTWWr/yEhIWhsbMT+/fvl5nNzc4O7uzu2bNkiMzIIns8+h4eHIyYmBvX19S/sl6enJxwdHREVFSUzVuTy5ctx9uxZ5OXlyS1r6tSpcHJyQmJiIk6dOgUOh9NrP1avXo2CggIkJiaisrISK1eu7LUth8NBYmIiEhMTMW3aNIwfP77Xti+KyoTk5OQkfnBeF9evX4dQKIRQKBSfeHVycgKfz8edO3fE+fbu3SvO19W0WVhYwMTERGJpZsGCBeJ8QqEQTk5OCv0aN24cOjs75YY4HjduHG7fvq2wLA6Hg9TUVPB4PBw9ehSLFy+GqampQjsAiIiIwNGjRwEAx44dw1tvvdUrOzs7O8ybNw9Hjx7Fo0ePkJWV1Wvb/qAyIWlra/eoYUJDQ+Hu7o4zZ86IpxSY8u3btw/u7u7YunUrdHV1xfnwfE9QF1lZWXB3d0dgYCB0dHR6tWYmEonQ2dkpN8SxSCSSG4QLz/try5YtE4vh8uXLqK2tRVhYmEIf/Pz84ODggOPHjwMAjh49ismTJ/dq2SkiIgKFhYUoKCgQ265atQpDhgxRaNsfVCakkpISTJo0SeLaH3/8AS6XK7G7sKSkBPr6+hKTZtXV1eByuRId7draWjQ3N4sjhQBAU1MTuFwu7t+/32u/SktLoaenB0dHR7l5XFxc5JazfPlyGBkZITExEUKhEB0dHbC1te1V7cDhcKCjo4OKigoIhULcu3dPfF0e2traePPNN+Hi4iKuhb/77jtYWloiODhY4ev2B5UJ6fTp07CxscGqVavk5svJyUF5eTk2b94sN59IJMLp06fxwQcf9Gs/UE5ODqqrq7Fx40aZeVJSUrB48WI4ODjIzMPhcBAXFwd3d3dxCg4OxqRJk+Tu/zY2NsZrr72G9957T8J2586dCA0NBZvNlmk7d+5c2NjYYMaMGRK258+fH/DmTWU7JIuKihAdHY1Dhw7B1dUVZ86cQV1dHUxNTeHo6CgeyhJCsGbNGqSkpMDExASxsbEoLy+Hvr4+vL29JcrctGkTcnNzce3aNcTExIj7MdJzUvLo7OzE+++/jxMnTmDo0KE4cuQIampqYGlpCTMzM5w4cQKxsbEIDw/HlStXEBUVhdzcXOjo6MDR0RHXr18Hm83G1KlTERERIdHX4nK5yM7OBofDwY0bNxhf/4033sDTp08RGxsLoVAovv7o0SN8+OGHWLJkSY8zd11wOBwkJSX1WNn/8ssvcfHiRdjZ2eHRo0e9/iz6hKqG/11p+fLlJCsri/B4PNLe3k4qKytJeno6WbFihUQ+Ly8vkpSURGpqaohAICBPnjwhOTk5JDo6use0wsGDB0lZWRnh8/nk2bNn5O7du+Tw4cPE1NRU4fC/K82ePZtcuHCB1NfXE4FAQCoqKsju3bvF9w0NDclnn31GioqKSLStwU8AAAE+SURBVHt7O2lsbCQ5OTnE2dmZfPXVVyQ9PZ2x3JCQENLY2EgMDQ0ZP5u8vDyybds2RtuDBw+SX375hXH4b25uTvh8PvH19WW0vXPnDtm+ffuADf/7vWj7V9j0pcn4+/sjIyOj3+XQUyQUpdBvIXl6eiplGwJFNShrsrLfQvLw8NDIMC5/FebOnaucgvrbybpy5Yq440jTnyuxWCzS1NSklM52v2skX19fREZGauRzXP/MaGlp4cCBA+Jj6f1GKXIkhGzYsIHo6uqq/FdGk+KkpaVF3n77bWV99YQoY/N/d7KyssiMGTMYtzzQpPpkaGhIXF1dSX5+vjK/dkJoVFuKsqDzSBSlQIVEUQpUSBSlQIVEUQpUSBSlQIVEUQpUSBSlQIVEUQpUSBSlQIVEUQpUSBSlQIVEUQpUSBSl8P8AUDR/OjBdC2YAAAAASUVORK5CYII=;" vertex="1" parent="1">
          <mxGeometry x="570" y="160" width="146" height="197" as="geometry" />
        </mxCell>
        <mxCell id="_WpON1TOEkIr62-E9Z8a-3" value="" style="endArrow=none;dashed=1;html=1;rounded=0;entryX=1;entryY=0;entryDx=0;entryDy=0;fillColor=#f5f5f5;strokeColor=#666666;strokeWidth=3;shadow=1;" edge="1" parent="1" target="_WpON1TOEkIr62-E9Z8a-1">
          <mxGeometry width="50" height="50" relative="1" as="geometry">
            <mxPoint x="492" y="515" as="sourcePoint" />
            <mxPoint x="542" y="465" as="targetPoint" />
          </mxGeometry>
        </mxCell>
        <mxCell id="_WpON1TOEkIr62-E9Z8a-4" value="&lt;b&gt;&lt;font style=&quot;font-size: 18px;&quot;&gt;A)&lt;/font&gt;&lt;/b&gt;" style="text;html=1;align=center;verticalAlign=middle;whiteSpace=wrap;rounded=0;" vertex="1" parent="1">
          <mxGeometry x="40" y="40" width="60" height="30" as="geometry" />
        </mxCell>
        <mxCell id="_WpON1TOEkIr62-E9Z8a-5" value="&lt;b&gt;&lt;font style=&quot;font-size: 18px;&quot;&gt;Б)&lt;/font&gt;&lt;/b&gt;" style="text;html=1;align=center;verticalAlign=middle;whiteSpace=wrap;rounded=0;" vertex="1" parent="1">
          <mxGeometry x="495" y="40" width="60" height="30" as="geometry" />
        </mxCell>
      </root>
    </mxGraphModel>
  </diagram>
</mxfile>
